<mxfile host="app.diagrams.net" agent="Mozilla/5.0 (Windows NT 10.0; Win64; x64; rv:143.0) Gecko/20100101 Firefox/143.0" version="28.2.5" pages="5">
  <diagram name="Page-1" id="u2sz81hyQVn8kZ3CrKQu">
    <mxGraphModel dx="2489" dy="2238" grid="1" gridSize="10" guides="1" tooltips="1" connect="1" arrows="1" fold="1" page="1" pageScale="1" pageWidth="850" pageHeight="1100" math="0" shadow="0">
      <root>
        <mxCell id="0" />
        <mxCell id="1" parent="0" />
        <mxCell id="80mrCMBhd-SdEi7i8wLU-2" value="SSP sandbox account" style="points=[[0,0],[0.25,0],[0.5,0],[0.75,0],[1,0],[1,0.25],[1,0.5],[1,0.75],[1,1],[0.75,1],[0.5,1],[0.25,1],[0,1],[0,0.75],[0,0.5],[0,0.25]];outlineConnect=0;gradientColor=none;html=1;whiteSpace=wrap;fontSize=12;fontStyle=0;container=1;pointerEvents=0;collapsible=0;recursiveResize=0;shape=mxgraph.aws4.group;grIcon=mxgraph.aws4.group_account;strokeColor=#CD2264;fillColor=none;verticalAlign=top;align=left;spacingLeft=30;fontColor=#CD2264;dashed=0;" parent="1" vertex="1">
          <mxGeometry x="100" y="370" width="650" height="530" as="geometry" />
        </mxCell>
        <mxCell id="80mrCMBhd-SdEi7i8wLU-3" value="nexus-ocean-cluster" style="sketch=0;outlineConnect=0;fontColor=#232F3E;gradientColor=none;strokeColor=#ffffff;fillColor=#232F3E;dashed=0;verticalLabelPosition=middle;verticalAlign=bottom;align=center;html=1;whiteSpace=wrap;fontSize=10;fontStyle=1;spacing=3;shape=mxgraph.aws4.productIcon;prIcon=mxgraph.aws4.eks;" parent="80mrCMBhd-SdEi7i8wLU-2" vertex="1">
          <mxGeometry x="160" y="200" width="100" height="130" as="geometry" />
        </mxCell>
        <mxCell id="80mrCMBhd-SdEi7i8wLU-4" value="ssp controlplane cluster" style="sketch=0;outlineConnect=0;fontColor=#232F3E;gradientColor=none;strokeColor=#ffffff;fillColor=#232F3E;dashed=0;verticalLabelPosition=middle;verticalAlign=bottom;align=center;html=1;whiteSpace=wrap;fontSize=10;fontStyle=1;spacing=3;shape=mxgraph.aws4.productIcon;prIcon=mxgraph.aws4.eks;" parent="80mrCMBhd-SdEi7i8wLU-2" vertex="1">
          <mxGeometry x="380" y="200" width="100" height="130" as="geometry" />
        </mxCell>
        <mxCell id="80mrCMBhd-SdEi7i8wLU-15" value="argocd / crossplane" style="image;aspect=fixed;perimeter=ellipsePerimeter;html=1;align=center;shadow=0;dashed=0;fontColor=#4277BB;labelBackgroundColor=default;fontSize=12;spacingTop=3;image=img/lib/ibm/devops/devops.svg;" parent="80mrCMBhd-SdEi7i8wLU-2" vertex="1">
          <mxGeometry x="510" y="180" width="60" height="60" as="geometry" />
        </mxCell>
        <mxCell id="80mrCMBhd-SdEi7i8wLU-25" value="" style="strokeColor=#dddddd;shadow=1;strokeWidth=1;rounded=1;absoluteArcSize=1;arcSize=2;" parent="80mrCMBhd-SdEi7i8wLU-2" vertex="1">
          <mxGeometry x="180" y="330" width="180" height="70" as="geometry" />
        </mxCell>
        <mxCell id="80mrCMBhd-SdEi7i8wLU-26" value="Port Ocean Pods" style="editableCssRules=.*;html=1;fontColor=#999999;shape=image;verticalLabelPosition=middle;labelBackgroundColor=#ffffff;verticalAlign=middle;labelPosition=right;align=left;spacingLeft=20;part=1;points=[];imageAspect=0;image=data:image/svg+xml,PHN2ZyB4bWxucz0iaHR0cDovL3d3dy53My5vcmcvMjAwMC9zdmciIHhtbG5zOnY9Imh0dHBzOi8vdmVjdGEuaW8vbmFubyIgd2lkdGg9IjQyNCIgaGVpZ2h0PSI0MjQiIHZpZXdCb3g9IjAgMCA0MjQgNDI0Ij4mI3hhOwk8c3R5bGUgdHlwZT0idGV4dC9jc3MiPiYjeGE7CS5zdDB7ZmlsbDojNDI4NWY0O30mI3hhOwk8L3N0eWxlPiYjeGE7CTxwYXRoIGNsYXNzPSJzdDAiIGQ9Ik00MjQgMHY0MjRIMFYwek0yMTIgOTcuODQ2Yy0zNy44ODQgMC03MC4xNjQgMjMuOTktODIuNDc4IDU3LjYwOGgwbC0zLjQwMy4wMDFjLTQyLjYzNCAwLTc3LjE5NiAzNC41NjItNzcuMTk2IDc3LjE5NnMzNC41NjIgNzcuMTk2IDc3LjE5NiA3Ny4xOTZoMCAxNzEuNzYzYzQyLjYzNCAwIDc3LjE5Ni0zNC41NjIgNzcuMTk2LTc3LjE5NnMtMzQuNTYyLTc3LjE5Ni03Ny4xOTYtNzcuMTk2aDBsLTMuNDAzLS4wMDFDMjgyLjE2NCAxMjEuODM3IDI0OS44ODQgOTcuODQ2IDIxMiA5Ny44NDZ6IiBmaWxsLXJ1bGU9ImV2ZW5vZGQiLz4mI3hhOzwvc3ZnPg==;" parent="80mrCMBhd-SdEi7i8wLU-25" vertex="1">
          <mxGeometry width="30" height="30" relative="1" as="geometry">
            <mxPoint x="15" y="15" as="offset" />
          </mxGeometry>
        </mxCell>
        <mxCell id="80mrCMBhd-SdEi7i8wLU-10" style="edgeStyle=orthogonalEdgeStyle;rounded=0;orthogonalLoop=1;jettySize=auto;html=1;" parent="1" source="80mrCMBhd-SdEi7i8wLU-5" target="80mrCMBhd-SdEi7i8wLU-7" edge="1">
          <mxGeometry relative="1" as="geometry" />
        </mxCell>
        <mxCell id="80mrCMBhd-SdEi7i8wLU-11" style="edgeStyle=orthogonalEdgeStyle;rounded=0;orthogonalLoop=1;jettySize=auto;html=1;" parent="1" source="80mrCMBhd-SdEi7i8wLU-5" target="80mrCMBhd-SdEi7i8wLU-6" edge="1">
          <mxGeometry relative="1" as="geometry" />
        </mxCell>
        <mxCell id="80mrCMBhd-SdEi7i8wLU-20" style="edgeStyle=orthogonalEdgeStyle;rounded=0;orthogonalLoop=1;jettySize=auto;html=1;entryX=0.5;entryY=0;entryDx=0;entryDy=0;" parent="1" source="80mrCMBhd-SdEi7i8wLU-5" target="80mrCMBhd-SdEi7i8wLU-19" edge="1">
          <mxGeometry relative="1" as="geometry" />
        </mxCell>
        <mxCell id="80mrCMBhd-SdEi7i8wLU-5" value="developer machine " style="html=1;verticalLabelPosition=bottom;align=center;labelBackgroundColor=#ffffff;verticalAlign=top;strokeWidth=2;strokeColor=#0080F0;shadow=0;dashed=0;shape=mxgraph.ios7.icons.user;" parent="1" vertex="1">
          <mxGeometry x="390" width="110" height="120" as="geometry" />
        </mxCell>
        <mxCell id="80mrCMBhd-SdEi7i8wLU-14" style="edgeStyle=orthogonalEdgeStyle;rounded=0;orthogonalLoop=1;jettySize=auto;html=1;" parent="1" source="80mrCMBhd-SdEi7i8wLU-6" target="80mrCMBhd-SdEi7i8wLU-4" edge="1">
          <mxGeometry relative="1" as="geometry" />
        </mxCell>
        <mxCell id="80mrCMBhd-SdEi7i8wLU-6" value="pulumi nexus ocean" style="sketch=0;outlineConnect=0;fontColor=#232F3E;gradientColor=none;fillColor=#232F3D;strokeColor=none;dashed=0;verticalLabelPosition=bottom;verticalAlign=top;align=center;html=1;fontSize=12;fontStyle=0;aspect=fixed;pointerEvents=1;shape=mxgraph.aws4.source_code;" parent="1" vertex="1">
          <mxGeometry x="490" y="210" width="57" height="78" as="geometry" />
        </mxCell>
        <mxCell id="80mrCMBhd-SdEi7i8wLU-13" style="edgeStyle=orthogonalEdgeStyle;rounded=0;orthogonalLoop=1;jettySize=auto;html=1;" parent="1" source="80mrCMBhd-SdEi7i8wLU-7" target="80mrCMBhd-SdEi7i8wLU-3" edge="1">
          <mxGeometry relative="1" as="geometry" />
        </mxCell>
        <mxCell id="80mrCMBhd-SdEi7i8wLU-7" value="pulumi controplane" style="sketch=0;outlineConnect=0;fontColor=#232F3E;gradientColor=none;fillColor=#232F3D;strokeColor=none;dashed=0;verticalLabelPosition=bottom;verticalAlign=top;align=center;html=1;fontSize=12;fontStyle=0;aspect=fixed;pointerEvents=1;shape=mxgraph.aws4.source_code;" parent="1" vertex="1">
          <mxGeometry x="340" y="210" width="57" height="78" as="geometry" />
        </mxCell>
        <mxCell id="80mrCMBhd-SdEi7i8wLU-17" style="edgeStyle=orthogonalEdgeStyle;rounded=0;orthogonalLoop=1;jettySize=auto;html=1;" parent="1" source="80mrCMBhd-SdEi7i8wLU-16" target="80mrCMBhd-SdEi7i8wLU-4" edge="1">
          <mxGeometry relative="1" as="geometry" />
        </mxCell>
        <mxCell id="80mrCMBhd-SdEi7i8wLU-16" value="ssp gitlab controlplane repo" style="shape=image;html=1;verticalAlign=top;verticalLabelPosition=bottom;labelBackgroundColor=#ffffff;imageAspect=0;aspect=fixed;image=https://cdn4.iconfinder.com/data/icons/socialcones/508/Gitlab-128.png" parent="1" vertex="1">
          <mxGeometry x="485" y="950" width="90" height="90" as="geometry" />
        </mxCell>
        <mxCell id="80mrCMBhd-SdEi7i8wLU-21" style="edgeStyle=orthogonalEdgeStyle;rounded=0;orthogonalLoop=1;jettySize=auto;html=1;" parent="1" source="80mrCMBhd-SdEi7i8wLU-19" target="80mrCMBhd-SdEi7i8wLU-4" edge="1">
          <mxGeometry relative="1" as="geometry" />
        </mxCell>
        <mxCell id="80mrCMBhd-SdEi7i8wLU-19" value="crossplane" style="image;aspect=fixed;perimeter=ellipsePerimeter;html=1;align=center;shadow=0;dashed=0;fontColor=#4277BB;labelBackgroundColor=default;fontSize=12;spacingTop=3;image=img/lib/ibm/devops/devops.svg;" parent="1" vertex="1">
          <mxGeometry x="650" y="210" width="60" height="60" as="geometry" />
        </mxCell>
        <mxCell id="80mrCMBhd-SdEi7i8wLU-22" value="" style="sketch=0;html=1;dashed=0;whitespace=wrap;fillColor=#2875E2;strokeColor=#ffffff;points=[[0.005,0.63,0],[0.1,0.2,0],[0.9,0.2,0],[0.5,0,0],[0.995,0.63,0],[0.72,0.99,0],[0.5,1,0],[0.28,0.99,0]];verticalLabelPosition=bottom;align=center;verticalAlign=top;shape=mxgraph.kubernetes.icon;prIcon=api" parent="1" vertex="1">
          <mxGeometry x="690" y="190" width="50" height="48" as="geometry" />
        </mxCell>
        <mxCell id="80mrCMBhd-SdEi7i8wLU-24" style="edgeStyle=orthogonalEdgeStyle;rounded=0;orthogonalLoop=1;jettySize=auto;html=1;" parent="1" source="80mrCMBhd-SdEi7i8wLU-23" target="80mrCMBhd-SdEi7i8wLU-3" edge="1">
          <mxGeometry relative="1" as="geometry" />
        </mxCell>
        <mxCell id="80mrCMBhd-SdEi7i8wLU-23" value="Port (SSP UI)" style="verticalLabelPosition=bottom;html=1;verticalAlign=top;align=center;strokeColor=none;fillColor=#00BEF2;shape=mxgraph.azure.website_generic;pointerEvents=1;" parent="1" vertex="1">
          <mxGeometry x="-110" y="620" width="150" height="120" as="geometry" />
        </mxCell>
      </root>
    </mxGraphModel>
  </diagram>
  <diagram id="gt8r94h6-SJJOr_Xdmcl" name="Managed Service Logging">
    <mxGraphModel dx="2069" dy="1133" grid="1" gridSize="10" guides="1" tooltips="1" connect="1" arrows="1" fold="1" page="1" pageScale="1" pageWidth="850" pageHeight="1100" math="0" shadow="0">
      <root>
        <mxCell id="0" />
        <mxCell id="1" parent="0" />
        <mxCell id="jWiDv110_Oc0_sUXT4k4-41" value="" style="rounded=0;whiteSpace=wrap;html=1;fillColor=#dae8fc;strokeColor=#6c8ebf;" vertex="1" parent="1">
          <mxGeometry x="-81" y="212.5" width="1080" height="130" as="geometry" />
        </mxCell>
        <mxCell id="jWiDv110_Oc0_sUXT4k4-40" value="" style="rounded=0;whiteSpace=wrap;html=1;fillColor=#dae8fc;strokeColor=#6c8ebf;" vertex="1" parent="1">
          <mxGeometry x="-80" y="370" width="1080" height="130" as="geometry" />
        </mxCell>
        <mxCell id="oJkm7anP_jffGEiI-aXf-1" value="opensearch" style="sketch=0;outlineConnect=0;fontColor=#232F3E;gradientColor=none;fillColor=#8C4FFF;strokeColor=none;dashed=0;verticalLabelPosition=bottom;verticalAlign=top;align=center;html=1;fontSize=12;fontStyle=0;aspect=fixed;pointerEvents=1;shape=mxgraph.aws4.opensearch_service_cluster_administrator_node;" parent="1" vertex="1">
          <mxGeometry x="498" y="650" width="78" height="78" as="geometry" />
        </mxCell>
        <mxCell id="oJkm7anP_jffGEiI-aXf-3" style="edgeStyle=orthogonalEdgeStyle;rounded=0;orthogonalLoop=1;jettySize=auto;html=1;" parent="1" source="oJkm7anP_jffGEiI-aXf-2" target="oJkm7anP_jffGEiI-aXf-1" edge="1">
          <mxGeometry relative="1" as="geometry" />
        </mxCell>
        <mxCell id="oJkm7anP_jffGEiI-aXf-2" value="ingestion pipelines" style="sketch=0;outlineConnect=0;fontColor=#232F3E;gradientColor=none;fillColor=#7AA116;strokeColor=none;dashed=0;verticalLabelPosition=bottom;verticalAlign=top;align=center;html=1;fontSize=12;fontStyle=0;aspect=fixed;pointerEvents=1;shape=mxgraph.aws4.iot_analytics_pipeline;" parent="1" vertex="1">
          <mxGeometry x="740" y="668" width="78" height="42" as="geometry" />
        </mxCell>
        <mxCell id="oJkm7anP_jffGEiI-aXf-4" value="MSK" style="sketch=0;points=[[0,0,0],[0.25,0,0],[0.5,0,0],[0.75,0,0],[1,0,0],[0,1,0],[0.25,1,0],[0.5,1,0],[0.75,1,0],[1,1,0],[0,0.25,0],[0,0.5,0],[0,0.75,0],[1,0.25,0],[1,0.5,0],[1,0.75,0]];outlineConnect=0;fontColor=#232F3E;fillColor=#8C4FFF;strokeColor=#ffffff;dashed=0;verticalLabelPosition=bottom;verticalAlign=top;align=center;html=1;fontSize=12;fontStyle=0;aspect=fixed;shape=mxgraph.aws4.resourceIcon;resIcon=mxgraph.aws4.managed_streaming_for_kafka;" parent="1" vertex="1">
          <mxGeometry x="110" y="80" width="78" height="78" as="geometry" />
        </mxCell>
        <mxCell id="oJkm7anP_jffGEiI-aXf-5" value="elasticache" style="sketch=0;outlineConnect=0;fontColor=#232F3E;gradientColor=none;fillColor=#C925D1;strokeColor=none;dashed=0;verticalLabelPosition=bottom;verticalAlign=top;align=center;html=1;fontSize=12;fontStyle=0;aspect=fixed;pointerEvents=1;shape=mxgraph.aws4.cache_node;" parent="1" vertex="1">
          <mxGeometry x="260" y="80" width="78" height="78" as="geometry" />
        </mxCell>
        <mxCell id="jWiDv110_Oc0_sUXT4k4-11" style="edgeStyle=orthogonalEdgeStyle;rounded=0;orthogonalLoop=1;jettySize=auto;html=1;" edge="1" parent="1" source="oJkm7anP_jffGEiI-aXf-6">
          <mxGeometry relative="1" as="geometry">
            <mxPoint x="459" y="240" as="targetPoint" />
          </mxGeometry>
        </mxCell>
        <mxCell id="oJkm7anP_jffGEiI-aXf-6" value="redshift" style="sketch=0;points=[[0,0,0],[0.25,0,0],[0.5,0,0],[0.75,0,0],[1,0,0],[0,1,0],[0.25,1,0],[0.5,1,0],[0.75,1,0],[1,1,0],[0,0.25,0],[0,0.5,0],[0,0.75,0],[1,0.25,0],[1,0.5,0],[1,0.75,0]];outlineConnect=0;fontColor=#232F3E;fillColor=#8C4FFF;strokeColor=#ffffff;dashed=0;verticalLabelPosition=bottom;verticalAlign=top;align=center;html=1;fontSize=12;fontStyle=0;aspect=fixed;shape=mxgraph.aws4.resourceIcon;resIcon=mxgraph.aws4.redshift;" parent="1" vertex="1">
          <mxGeometry x="420" y="80" width="78" height="78" as="geometry" />
        </mxCell>
        <mxCell id="oJkm7anP_jffGEiI-aXf-7" value="rds" style="sketch=0;points=[[0,0,0],[0.25,0,0],[0.5,0,0],[0.75,0,0],[1,0,0],[0,1,0],[0.25,1,0],[0.5,1,0],[0.75,1,0],[1,1,0],[0,0.25,0],[0,0.5,0],[0,0.75,0],[1,0.25,0],[1,0.5,0],[1,0.75,0]];outlineConnect=0;fontColor=#232F3E;fillColor=#C925D1;strokeColor=#ffffff;dashed=0;verticalLabelPosition=bottom;verticalAlign=top;align=center;html=1;fontSize=12;fontStyle=0;aspect=fixed;shape=mxgraph.aws4.resourceIcon;resIcon=mxgraph.aws4.rds;" parent="1" vertex="1">
          <mxGeometry x="560" y="80" width="78" height="78" as="geometry" />
        </mxCell>
        <mxCell id="oJkm7anP_jffGEiI-aXf-8" value="Emr" style="outlineConnect=0;dashed=0;verticalLabelPosition=bottom;verticalAlign=top;align=center;html=1;shape=mxgraph.aws3.emr;fillColor=#F58534;gradientColor=none;" parent="1" vertex="1">
          <mxGeometry x="1020" y="78.5" width="67.5" height="81" as="geometry" />
        </mxCell>
        <mxCell id="jWiDv110_Oc0_sUXT4k4-7" style="edgeStyle=orthogonalEdgeStyle;rounded=0;orthogonalLoop=1;jettySize=auto;html=1;" edge="1" parent="1" source="oJkm7anP_jffGEiI-aXf-9">
          <mxGeometry relative="1" as="geometry">
            <mxPoint x="899" y="240" as="targetPoint" />
          </mxGeometry>
        </mxCell>
        <mxCell id="jWiDv110_Oc0_sUXT4k4-8" value="Text" style="edgeLabel;html=1;align=center;verticalAlign=middle;resizable=0;points=[];" vertex="1" connectable="0" parent="jWiDv110_Oc0_sUXT4k4-7">
          <mxGeometry x="1" y="-1" relative="1" as="geometry">
            <mxPoint y="1" as="offset" />
          </mxGeometry>
        </mxCell>
        <mxCell id="oJkm7anP_jffGEiI-aXf-9" value="WAF" style="sketch=0;points=[[0,0,0],[0.25,0,0],[0.5,0,0],[0.75,0,0],[1,0,0],[0,1,0],[0.25,1,0],[0.5,1,0],[0.75,1,0],[1,1,0],[0,0.25,0],[0,0.5,0],[0,0.75,0],[1,0.25,0],[1,0.5,0],[1,0.75,0]];outlineConnect=0;fontColor=#232F3E;fillColor=#DD344C;strokeColor=#ffffff;dashed=0;verticalLabelPosition=bottom;verticalAlign=top;align=center;html=1;fontSize=12;fontStyle=0;aspect=fixed;shape=mxgraph.aws4.resourceIcon;resIcon=mxgraph.aws4.waf;" parent="1" vertex="1">
          <mxGeometry x="860" y="81.5" width="78" height="78" as="geometry" />
        </mxCell>
        <mxCell id="jWiDv110_Oc0_sUXT4k4-9" style="edgeStyle=orthogonalEdgeStyle;rounded=0;orthogonalLoop=1;jettySize=auto;html=1;" edge="1" parent="1" source="oJkm7anP_jffGEiI-aXf-10">
          <mxGeometry relative="1" as="geometry">
            <mxPoint x="740" y="240" as="targetPoint" />
          </mxGeometry>
        </mxCell>
        <mxCell id="oJkm7anP_jffGEiI-aXf-10" value="Amazon EKS" style="sketch=0;outlineConnect=0;fontColor=#232F3E;gradientColor=none;strokeColor=#ffffff;fillColor=#232F3E;dashed=0;verticalLabelPosition=middle;verticalAlign=bottom;align=center;html=1;whiteSpace=wrap;fontSize=10;fontStyle=1;spacing=3;shape=mxgraph.aws4.productIcon;prIcon=mxgraph.aws4.eks;" parent="1" vertex="1">
          <mxGeometry x="700" y="78.5" width="80" height="100" as="geometry" />
        </mxCell>
        <mxCell id="oJkm7anP_jffGEiI-aXf-11" value="&lt;div&gt;cloudwatch log group&lt;/div&gt;&lt;div&gt;&lt;br&gt;&lt;/div&gt;" style="outlineConnect=0;dashed=0;verticalLabelPosition=bottom;verticalAlign=top;align=center;html=1;shape=mxgraph.aws3.instance_with_cloudwatch;fillColor=#F58534;gradientColor=none;" parent="1" vertex="1">
          <mxGeometry x="119" y="241.5" width="60" height="63" as="geometry" />
        </mxCell>
        <mxCell id="jWiDv110_Oc0_sUXT4k4-28" style="edgeStyle=orthogonalEdgeStyle;rounded=0;orthogonalLoop=1;jettySize=auto;html=1;" edge="1" parent="1" source="oJkm7anP_jffGEiI-aXf-30" target="oJkm7anP_jffGEiI-aXf-1">
          <mxGeometry relative="1" as="geometry">
            <Array as="points">
              <mxPoint x="149" y="550" />
              <mxPoint x="537" y="550" />
            </Array>
          </mxGeometry>
        </mxCell>
        <mxCell id="oJkm7anP_jffGEiI-aXf-30" value="cw subscription filter" style="sketch=0;aspect=fixed;pointerEvents=1;shadow=0;dashed=0;html=1;strokeColor=none;labelPosition=center;verticalLabelPosition=bottom;verticalAlign=top;align=center;fillColor=#00188D;shape=mxgraph.mscae.enterprise.filter" parent="1" vertex="1">
          <mxGeometry x="115.66999999999999" y="400" width="66.66" height="60" as="geometry" />
        </mxCell>
        <mxCell id="oJkm7anP_jffGEiI-aXf-46" value="S3" style="sketch=0;points=[[0,0,0],[0.25,0,0],[0.5,0,0],[0.75,0,0],[1,0,0],[0,1,0],[0.25,1,0],[0.5,1,0],[0.75,1,0],[1,1,0],[0,0.25,0],[0,0.5,0],[0,0.75,0],[1,0.25,0],[1,0.5,0],[1,0.75,0]];outlineConnect=0;fontColor=#232F3E;fillColor=#7AA116;strokeColor=#ffffff;dashed=0;verticalLabelPosition=bottom;verticalAlign=top;align=center;html=1;fontSize=12;fontStyle=0;aspect=fixed;shape=mxgraph.aws4.resourceIcon;resIcon=mxgraph.aws4.s3_on_outposts_storage;" parent="1" vertex="1">
          <mxGeometry x="1014.75" y="234" width="78" height="78" as="geometry" />
        </mxCell>
        <mxCell id="oJkm7anP_jffGEiI-aXf-47" style="edgeStyle=orthogonalEdgeStyle;rounded=0;orthogonalLoop=1;jettySize=auto;html=1;entryX=0.5;entryY=0;entryDx=0;entryDy=0;entryPerimeter=0;" parent="1" source="oJkm7anP_jffGEiI-aXf-8" target="oJkm7anP_jffGEiI-aXf-46" edge="1">
          <mxGeometry relative="1" as="geometry" />
        </mxCell>
        <mxCell id="oJkm7anP_jffGEiI-aXf-50" style="edgeStyle=orthogonalEdgeStyle;rounded=0;orthogonalLoop=1;jettySize=auto;html=1;" parent="1" source="oJkm7anP_jffGEiI-aXf-48" target="oJkm7anP_jffGEiI-aXf-46" edge="1">
          <mxGeometry relative="1" as="geometry" />
        </mxCell>
        <mxCell id="oJkm7anP_jffGEiI-aXf-48" value="ingestion pipelines s3 scraper" style="verticalLabelPosition=bottom;align=center;dashed=0;html=1;verticalAlign=top;shape=mxgraph.pid.filters.liquid_filter_(rotary,_drum_or_disc,_scraper);" parent="1" vertex="1">
          <mxGeometry x="1026.25" y="639" width="55" height="100" as="geometry" />
        </mxCell>
        <mxCell id="oJkm7anP_jffGEiI-aXf-49" style="edgeStyle=orthogonalEdgeStyle;rounded=0;orthogonalLoop=1;jettySize=auto;html=1;entryX=-0.082;entryY=0.5;entryDx=0;entryDy=0;entryPerimeter=0;" parent="1" source="oJkm7anP_jffGEiI-aXf-2" target="oJkm7anP_jffGEiI-aXf-48" edge="1">
          <mxGeometry relative="1" as="geometry" />
        </mxCell>
        <mxCell id="jWiDv110_Oc0_sUXT4k4-2" value="&lt;div&gt;cloudwatch log group&lt;/div&gt;&lt;div&gt;&lt;br&gt;&lt;/div&gt;" style="outlineConnect=0;dashed=0;verticalLabelPosition=bottom;verticalAlign=top;align=center;html=1;shape=mxgraph.aws3.instance_with_cloudwatch;fillColor=#F58534;gradientColor=none;" vertex="1" parent="1">
          <mxGeometry x="269" y="241.5" width="60" height="63" as="geometry" />
        </mxCell>
        <mxCell id="jWiDv110_Oc0_sUXT4k4-3" value="&lt;div&gt;cloudwatch log group&lt;/div&gt;&lt;div&gt;&lt;br&gt;&lt;/div&gt;" style="outlineConnect=0;dashed=0;verticalLabelPosition=bottom;verticalAlign=top;align=center;html=1;shape=mxgraph.aws3.instance_with_cloudwatch;fillColor=#F58534;gradientColor=none;" vertex="1" parent="1">
          <mxGeometry x="429" y="241.5" width="60" height="63" as="geometry" />
        </mxCell>
        <mxCell id="jWiDv110_Oc0_sUXT4k4-4" value="&lt;div&gt;cloudwatch log group&lt;/div&gt;&lt;div&gt;&lt;br&gt;&lt;/div&gt;" style="outlineConnect=0;dashed=0;verticalLabelPosition=bottom;verticalAlign=top;align=center;html=1;shape=mxgraph.aws3.instance_with_cloudwatch;fillColor=#F58534;gradientColor=none;" vertex="1" parent="1">
          <mxGeometry x="569" y="241.5" width="60" height="63" as="geometry" />
        </mxCell>
        <mxCell id="jWiDv110_Oc0_sUXT4k4-5" value="&lt;div&gt;cloudwatch log group&lt;/div&gt;&lt;div&gt;&lt;br&gt;&lt;/div&gt;" style="outlineConnect=0;dashed=0;verticalLabelPosition=bottom;verticalAlign=top;align=center;html=1;shape=mxgraph.aws3.instance_with_cloudwatch;fillColor=#F58534;gradientColor=none;" vertex="1" parent="1">
          <mxGeometry x="710" y="241.5" width="60" height="63" as="geometry" />
        </mxCell>
        <mxCell id="jWiDv110_Oc0_sUXT4k4-6" value="&lt;div&gt;cloudwatch log group&lt;/div&gt;&lt;div&gt;&lt;br&gt;&lt;/div&gt;" style="outlineConnect=0;dashed=0;verticalLabelPosition=bottom;verticalAlign=top;align=center;html=1;shape=mxgraph.aws3.instance_with_cloudwatch;fillColor=#F58534;gradientColor=none;" vertex="1" parent="1">
          <mxGeometry x="869" y="241.5" width="60" height="63" as="geometry" />
        </mxCell>
        <mxCell id="jWiDv110_Oc0_sUXT4k4-10" style="edgeStyle=orthogonalEdgeStyle;rounded=0;orthogonalLoop=1;jettySize=auto;html=1;entryX=0.5;entryY=0;entryDx=0;entryDy=0;entryPerimeter=0;" edge="1" parent="1" source="oJkm7anP_jffGEiI-aXf-7" target="jWiDv110_Oc0_sUXT4k4-4">
          <mxGeometry relative="1" as="geometry" />
        </mxCell>
        <mxCell id="jWiDv110_Oc0_sUXT4k4-12" style="edgeStyle=orthogonalEdgeStyle;rounded=0;orthogonalLoop=1;jettySize=auto;html=1;entryX=0.5;entryY=0;entryDx=0;entryDy=0;entryPerimeter=0;" edge="1" parent="1" source="oJkm7anP_jffGEiI-aXf-5" target="jWiDv110_Oc0_sUXT4k4-2">
          <mxGeometry relative="1" as="geometry" />
        </mxCell>
        <mxCell id="jWiDv110_Oc0_sUXT4k4-13" style="edgeStyle=orthogonalEdgeStyle;rounded=0;orthogonalLoop=1;jettySize=auto;html=1;entryX=0.5;entryY=0;entryDx=0;entryDy=0;entryPerimeter=0;" edge="1" parent="1" source="oJkm7anP_jffGEiI-aXf-4" target="oJkm7anP_jffGEiI-aXf-11">
          <mxGeometry relative="1" as="geometry" />
        </mxCell>
        <mxCell id="jWiDv110_Oc0_sUXT4k4-29" style="edgeStyle=orthogonalEdgeStyle;rounded=0;orthogonalLoop=1;jettySize=auto;html=1;" edge="1" parent="1" source="jWiDv110_Oc0_sUXT4k4-16">
          <mxGeometry relative="1" as="geometry">
            <mxPoint x="299.3299999999999" y="550" as="targetPoint" />
          </mxGeometry>
        </mxCell>
        <mxCell id="jWiDv110_Oc0_sUXT4k4-16" value="cw subscription filter" style="sketch=0;aspect=fixed;pointerEvents=1;shadow=0;dashed=0;html=1;strokeColor=none;labelPosition=center;verticalLabelPosition=bottom;verticalAlign=top;align=center;fillColor=#00188D;shape=mxgraph.mscae.enterprise.filter" vertex="1" parent="1">
          <mxGeometry x="266" y="400" width="66.66" height="60" as="geometry" />
        </mxCell>
        <mxCell id="jWiDv110_Oc0_sUXT4k4-30" style="edgeStyle=orthogonalEdgeStyle;rounded=0;orthogonalLoop=1;jettySize=auto;html=1;" edge="1" parent="1" source="jWiDv110_Oc0_sUXT4k4-17">
          <mxGeometry relative="1" as="geometry">
            <mxPoint x="459" y="550" as="targetPoint" />
          </mxGeometry>
        </mxCell>
        <mxCell id="jWiDv110_Oc0_sUXT4k4-17" value="cw subscription filter" style="sketch=0;aspect=fixed;pointerEvents=1;shadow=0;dashed=0;html=1;strokeColor=none;labelPosition=center;verticalLabelPosition=bottom;verticalAlign=top;align=center;fillColor=#00188D;shape=mxgraph.mscae.enterprise.filter" vertex="1" parent="1">
          <mxGeometry x="425.66999999999996" y="400" width="66.66" height="60" as="geometry" />
        </mxCell>
        <mxCell id="jWiDv110_Oc0_sUXT4k4-35" style="edgeStyle=orthogonalEdgeStyle;rounded=0;orthogonalLoop=1;jettySize=auto;html=1;" edge="1" parent="1" source="jWiDv110_Oc0_sUXT4k4-18">
          <mxGeometry relative="1" as="geometry">
            <mxPoint x="599.6699999999998" y="550" as="targetPoint" />
          </mxGeometry>
        </mxCell>
        <mxCell id="jWiDv110_Oc0_sUXT4k4-18" value="cw subscription filter" style="sketch=0;aspect=fixed;pointerEvents=1;shadow=0;dashed=0;html=1;strokeColor=none;labelPosition=center;verticalLabelPosition=bottom;verticalAlign=top;align=center;fillColor=#00188D;shape=mxgraph.mscae.enterprise.filter" vertex="1" parent="1">
          <mxGeometry x="566.3399999999999" y="400" width="66.66" height="60" as="geometry" />
        </mxCell>
        <mxCell id="jWiDv110_Oc0_sUXT4k4-34" style="edgeStyle=orthogonalEdgeStyle;rounded=0;orthogonalLoop=1;jettySize=auto;html=1;" edge="1" parent="1" source="jWiDv110_Oc0_sUXT4k4-19">
          <mxGeometry relative="1" as="geometry">
            <mxPoint x="740" y="550" as="targetPoint" />
          </mxGeometry>
        </mxCell>
        <mxCell id="jWiDv110_Oc0_sUXT4k4-19" value="cw subscription filter" style="sketch=0;aspect=fixed;pointerEvents=1;shadow=0;dashed=0;html=1;strokeColor=none;labelPosition=center;verticalLabelPosition=bottom;verticalAlign=top;align=center;fillColor=#00188D;shape=mxgraph.mscae.enterprise.filter" vertex="1" parent="1">
          <mxGeometry x="706.67" y="400" width="66.66" height="60" as="geometry" />
        </mxCell>
        <mxCell id="jWiDv110_Oc0_sUXT4k4-33" style="edgeStyle=orthogonalEdgeStyle;rounded=0;orthogonalLoop=1;jettySize=auto;html=1;" edge="1" parent="1" source="jWiDv110_Oc0_sUXT4k4-20" target="oJkm7anP_jffGEiI-aXf-1">
          <mxGeometry relative="1" as="geometry">
            <Array as="points">
              <mxPoint x="899" y="550" />
              <mxPoint x="537" y="550" />
            </Array>
          </mxGeometry>
        </mxCell>
        <mxCell id="jWiDv110_Oc0_sUXT4k4-20" value="cw subscription filter" style="sketch=0;aspect=fixed;pointerEvents=1;shadow=0;dashed=0;html=1;strokeColor=none;labelPosition=center;verticalLabelPosition=bottom;verticalAlign=top;align=center;fillColor=#00188D;shape=mxgraph.mscae.enterprise.filter" vertex="1" parent="1">
          <mxGeometry x="865.67" y="400" width="66.66" height="60" as="geometry" />
        </mxCell>
        <mxCell id="jWiDv110_Oc0_sUXT4k4-21" style="edgeStyle=orthogonalEdgeStyle;rounded=0;orthogonalLoop=1;jettySize=auto;html=1;entryX=0.5;entryY=0;entryDx=0;entryDy=0;entryPerimeter=0;" edge="1" parent="1" source="oJkm7anP_jffGEiI-aXf-11" target="oJkm7anP_jffGEiI-aXf-30">
          <mxGeometry relative="1" as="geometry" />
        </mxCell>
        <mxCell id="jWiDv110_Oc0_sUXT4k4-22" style="edgeStyle=orthogonalEdgeStyle;rounded=0;orthogonalLoop=1;jettySize=auto;html=1;entryX=0.5;entryY=0;entryDx=0;entryDy=0;entryPerimeter=0;" edge="1" parent="1" source="jWiDv110_Oc0_sUXT4k4-2" target="jWiDv110_Oc0_sUXT4k4-16">
          <mxGeometry relative="1" as="geometry" />
        </mxCell>
        <mxCell id="jWiDv110_Oc0_sUXT4k4-23" style="edgeStyle=orthogonalEdgeStyle;rounded=0;orthogonalLoop=1;jettySize=auto;html=1;entryX=0.5;entryY=0;entryDx=0;entryDy=0;entryPerimeter=0;" edge="1" parent="1" source="jWiDv110_Oc0_sUXT4k4-3" target="jWiDv110_Oc0_sUXT4k4-17">
          <mxGeometry relative="1" as="geometry" />
        </mxCell>
        <mxCell id="jWiDv110_Oc0_sUXT4k4-24" style="edgeStyle=orthogonalEdgeStyle;rounded=0;orthogonalLoop=1;jettySize=auto;html=1;entryX=0.5;entryY=0;entryDx=0;entryDy=0;entryPerimeter=0;" edge="1" parent="1" source="jWiDv110_Oc0_sUXT4k4-4" target="jWiDv110_Oc0_sUXT4k4-18">
          <mxGeometry relative="1" as="geometry" />
        </mxCell>
        <mxCell id="jWiDv110_Oc0_sUXT4k4-25" style="edgeStyle=orthogonalEdgeStyle;rounded=0;orthogonalLoop=1;jettySize=auto;html=1;entryX=0.5;entryY=0;entryDx=0;entryDy=0;entryPerimeter=0;" edge="1" parent="1" source="jWiDv110_Oc0_sUXT4k4-5" target="jWiDv110_Oc0_sUXT4k4-19">
          <mxGeometry relative="1" as="geometry" />
        </mxCell>
        <mxCell id="jWiDv110_Oc0_sUXT4k4-26" style="edgeStyle=orthogonalEdgeStyle;rounded=0;orthogonalLoop=1;jettySize=auto;html=1;entryX=0.5;entryY=0;entryDx=0;entryDy=0;entryPerimeter=0;" edge="1" parent="1" source="jWiDv110_Oc0_sUXT4k4-6" target="jWiDv110_Oc0_sUXT4k4-20">
          <mxGeometry relative="1" as="geometry" />
        </mxCell>
        <mxCell id="jWiDv110_Oc0_sUXT4k4-36" value="" style="image;html=1;image=img/lib/atlassian/Jira_Logo.svg;" vertex="1" parent="1">
          <mxGeometry x="-60" y="241.5" width="72" height="72" as="geometry" />
        </mxCell>
        <mxCell id="jWiDv110_Oc0_sUXT4k4-37" value="" style="image;html=1;image=img/lib/atlassian/Jira_Logo.svg;" vertex="1" parent="1">
          <mxGeometry x="-60" y="400" width="72" height="72" as="geometry" />
        </mxCell>
        <mxCell id="jWiDv110_Oc0_sUXT4k4-38" value="" style="image;html=1;image=img/lib/atlassian/Jira_Logo.svg;" vertex="1" parent="1">
          <mxGeometry x="1100" y="650" width="72" height="72" as="geometry" />
        </mxCell>
        <mxCell id="jWiDv110_Oc0_sUXT4k4-39" value="" style="image;html=1;image=img/lib/atlassian/Jira_Logo.svg;" vertex="1" parent="1">
          <mxGeometry x="1070" y="280" width="72" height="72" as="geometry" />
        </mxCell>
      </root>
    </mxGraphModel>
  </diagram>
  <diagram id="ekYXq-ceZeOxHHC5NjTg" name="SSP  SSO RBAC">
    <mxGraphModel dx="1639" dy="2238" grid="1" gridSize="10" guides="1" tooltips="1" connect="1" arrows="1" fold="1" page="1" pageScale="1" pageWidth="850" pageHeight="1100" math="0" shadow="0">
      <root>
        <mxCell id="0" />
        <mxCell id="1" parent="0" />
        <mxCell id="4NxvAoO0kSFne4GdwrK2-6" value="" style="shape=mxgraph.mockup.containers.marginRect;rectMarginTop=10;strokeColor=#82b366;strokeWidth=1;dashed=0;rounded=1;arcSize=5;recursiveResize=0;html=1;whiteSpace=wrap;fillColor=#d5e8d4;" parent="1" vertex="1">
          <mxGeometry x="80" y="290" width="330" height="674" as="geometry" />
        </mxCell>
        <mxCell id="4NxvAoO0kSFne4GdwrK2-7" value="&lt;div align=&quot;center&quot;&gt;&lt;b&gt;SSP Admin&lt;/b&gt;&lt;/div&gt;" style="shape=rect;strokeColor=#2D7600;fillColor=#60a917;strokeWidth=1;dashed=0;rounded=1;arcSize=20;fontSize=17;spacing=2;spacingTop=-2;align=center;autosize=1;spacingLeft=4;resizeWidth=0;resizeHeight=0;perimeter=none;html=1;whiteSpace=wrap;fontColor=#ffffff;" parent="4NxvAoO0kSFne4GdwrK2-6" vertex="1">
          <mxGeometry y="10" width="330" height="40" as="geometry" />
        </mxCell>
        <mxCell id="4NxvAoO0kSFne4GdwrK2-11" value="Administrator IAM Role" style="shape=image;imageAspect=0;aspect=fixed;verticalLabelPosition=bottom;verticalAlign=top;image=https://upload.wikimedia.org/wikipedia/commons/thumb/9/93/Amazon_Web_Services_Logo.svg/2560px-Amazon_Web_Services_Logo.svg.png;" parent="4NxvAoO0kSFne4GdwrK2-6" vertex="1">
          <mxGeometry x="31.800000000000004" y="250" width="83.6" height="50" as="geometry" />
        </mxCell>
        <mxCell id="4NxvAoO0kSFne4GdwrK2-12" value="role:admin" style="shape=image;imageAspect=0;aspect=fixed;verticalLabelPosition=bottom;verticalAlign=top;image=https://www.opsmx.com/wp-content/uploads/2022/07/Argo-1-e1630327305635-1.png;" parent="4NxvAoO0kSFne4GdwrK2-6" vertex="1">
          <mxGeometry x="180" y="235" width="120.58" height="80" as="geometry" />
        </mxCell>
        <mxCell id="4NxvAoO0kSFne4GdwrK2-13" value="Port Prod" style="shape=image;imageAspect=0;aspect=fixed;verticalLabelPosition=bottom;verticalAlign=top;image=https://docs.port.io/img/logos/logo-light.svg;" parent="4NxvAoO0kSFne4GdwrK2-6" vertex="1">
          <mxGeometry x="27.95999999999999" y="400" width="121.64" height="40" as="geometry" />
        </mxCell>
        <mxCell id="4NxvAoO0kSFne4GdwrK2-14" value="Teleport Admin" style="shape=image;imageAspect=0;aspect=fixed;verticalLabelPosition=bottom;verticalAlign=top;image=https://awsmp-logos.s3.amazonaws.com/910fe4c2-83dd-4c8a-b44a-0a66fd56c214/fad23c0b4ea3e7d3abe18e6d2c2d7e8d.png;" parent="4NxvAoO0kSFne4GdwrK2-6" vertex="1">
          <mxGeometry x="200" y="520" width="90" height="120" as="geometry" />
        </mxCell>
        <mxCell id="4NxvAoO0kSFne4GdwrK2-18" value="CloudOps Team" style="rounded=1;whiteSpace=wrap;html=1;fillColor=#d5e8d4;strokeColor=#82b366;" parent="4NxvAoO0kSFne4GdwrK2-6" vertex="1">
          <mxGeometry x="0.58" y="50" width="329.42" height="60" as="geometry" />
        </mxCell>
        <mxCell id="4NxvAoO0kSFne4GdwrK2-19" value="" style="verticalLabelPosition=bottom;html=1;verticalAlign=top;align=center;strokeColor=none;fillColor=#00BEF2;shape=mxgraph.azure.azure_active_directory;" parent="4NxvAoO0kSFne4GdwrK2-6" vertex="1">
          <mxGeometry x="20" y="130" width="47.5" height="50" as="geometry" />
        </mxCell>
        <mxCell id="4NxvAoO0kSFne4GdwrK2-21" value="&lt;h2&gt;Admin &lt;span style=&quot;font-weight: normal;&quot;&gt;AD Access Package&lt;/span&gt;&lt;/h2&gt;" style="text;html=1;align=center;verticalAlign=middle;whiteSpace=wrap;rounded=0;" parent="4NxvAoO0kSFne4GdwrK2-6" vertex="1">
          <mxGeometry x="80" y="140" width="230" height="30" as="geometry" />
        </mxCell>
        <mxCell id="4NxvAoO0kSFne4GdwrK2-22" value="Port Test" style="shape=image;imageAspect=0;aspect=fixed;verticalLabelPosition=bottom;verticalAlign=top;image=https://docs.port.io/img/logos/logo-light.svg;" parent="4NxvAoO0kSFne4GdwrK2-6" vertex="1">
          <mxGeometry x="180" y="400" width="121.64" height="40" as="geometry" />
        </mxCell>
        <mxCell id="4NxvAoO0kSFne4GdwrK2-17" value="" style="image;aspect=fixed;html=1;points=[];align=center;fontSize=12;image=img/lib/azure2/identity/Azure_Active_Directory.svg;" parent="4NxvAoO0kSFne4GdwrK2-6" vertex="1">
          <mxGeometry x="116.79000000000002" y="270" width="32.81" height="30" as="geometry" />
        </mxCell>
        <mxCell id="4NxvAoO0kSFne4GdwrK2-23" value="" style="image;aspect=fixed;html=1;points=[];align=center;fontSize=12;image=img/lib/azure2/identity/Azure_Active_Directory.svg;" parent="4NxvAoO0kSFne4GdwrK2-6" vertex="1">
          <mxGeometry x="268.83000000000004" y="270" width="32.81" height="30" as="geometry" />
        </mxCell>
        <mxCell id="4NxvAoO0kSFne4GdwrK2-24" value="" style="image;aspect=fixed;html=1;points=[];align=center;fontSize=12;image=img/lib/azure2/identity/Azure_Active_Directory.svg;" parent="4NxvAoO0kSFne4GdwrK2-6" vertex="1">
          <mxGeometry x="140.00000000000003" y="420" width="32.81" height="30" as="geometry" />
        </mxCell>
        <mxCell id="4NxvAoO0kSFne4GdwrK2-26" value="" style="image;aspect=fixed;html=1;points=[];align=center;fontSize=12;image=img/lib/azure2/identity/Azure_Active_Directory.svg;" parent="4NxvAoO0kSFne4GdwrK2-6" vertex="1">
          <mxGeometry x="290" y="420" width="32.81" height="30" as="geometry" />
        </mxCell>
        <mxCell id="4NxvAoO0kSFne4GdwrK2-28" value="" style="image;aspect=fixed;html=1;points=[];align=center;fontSize=12;image=img/lib/azure2/identity/Azure_Active_Directory.svg;" parent="4NxvAoO0kSFne4GdwrK2-6" vertex="1">
          <mxGeometry x="268.83" y="580" width="32.81" height="30" as="geometry" />
        </mxCell>
        <mxCell id="AOAj3xcZdFScZATebxmy-5" value="Opensearch All Access" style="shape=image;imageAspect=0;aspect=fixed;verticalLabelPosition=bottom;verticalAlign=top;image=https://opensearch.org/wp-content/uploads/2025/01/opensearch_mark_default.png?ajs_aid=0f821998-c673-41e4-b3e2-64008b8ac4d4;" vertex="1" parent="4NxvAoO0kSFne4GdwrK2-6">
          <mxGeometry x="43.77999999999997" y="530" width="90" height="90" as="geometry" />
        </mxCell>
        <mxCell id="AOAj3xcZdFScZATebxmy-8" value="" style="image;aspect=fixed;html=1;points=[];align=center;fontSize=12;image=img/lib/azure2/identity/Azure_Active_Directory.svg;" vertex="1" parent="4NxvAoO0kSFne4GdwrK2-6">
          <mxGeometry x="116.79000000000002" y="590" width="32.81" height="30" as="geometry" />
        </mxCell>
        <mxCell id="4NxvAoO0kSFne4GdwrK2-29" value="" style="shape=mxgraph.mockup.containers.marginRect;rectMarginTop=10;strokeColor=#b85450;strokeWidth=1;dashed=0;rounded=1;arcSize=5;recursiveResize=0;html=1;whiteSpace=wrap;fillColor=#f8cecc;" parent="1" vertex="1">
          <mxGeometry x="800" y="290" width="330" height="674" as="geometry" />
        </mxCell>
        <mxCell id="4NxvAoO0kSFne4GdwrK2-30" value="&lt;b&gt;SSP Reporter&lt;/b&gt;" style="shape=rect;strokeColor=#B20000;fillColor=#e51400;strokeWidth=1;dashed=0;rounded=1;arcSize=20;fontColor=#ffffff;fontSize=17;spacing=2;spacingTop=-2;align=center;autosize=1;spacingLeft=4;resizeWidth=0;resizeHeight=0;perimeter=none;html=1;whiteSpace=wrap;" parent="4NxvAoO0kSFne4GdwrK2-29" vertex="1">
          <mxGeometry y="10" width="330" height="40" as="geometry" />
        </mxCell>
        <mxCell id="4NxvAoO0kSFne4GdwrK2-31" value="ReadOnly DEV/QA" style="shape=image;imageAspect=0;aspect=fixed;verticalLabelPosition=bottom;verticalAlign=top;image=https://upload.wikimedia.org/wikipedia/commons/thumb/9/93/Amazon_Web_Services_Logo.svg/2560px-Amazon_Web_Services_Logo.svg.png;" parent="4NxvAoO0kSFne4GdwrK2-29" vertex="1">
          <mxGeometry x="31.800000000000004" y="250" width="83.6" height="50" as="geometry" />
        </mxCell>
        <mxCell id="4NxvAoO0kSFne4GdwrK2-32" value="role:readonly" style="shape=image;imageAspect=0;aspect=fixed;verticalLabelPosition=bottom;verticalAlign=top;image=https://www.opsmx.com/wp-content/uploads/2022/07/Argo-1-e1630327305635-1.png;" parent="4NxvAoO0kSFne4GdwrK2-29" vertex="1">
          <mxGeometry x="190" y="380" width="120.58" height="80" as="geometry" />
        </mxCell>
        <mxCell id="4NxvAoO0kSFne4GdwrK2-33" value="Port Prod" style="shape=image;imageAspect=0;aspect=fixed;verticalLabelPosition=bottom;verticalAlign=top;image=https://docs.port.io/img/logos/logo-light.svg;" parent="4NxvAoO0kSFne4GdwrK2-29" vertex="1">
          <mxGeometry x="27.95999999999999" y="400" width="121.64" height="40" as="geometry" />
        </mxCell>
        <mxCell id="4NxvAoO0kSFne4GdwrK2-36" value="&lt;div&gt;Application Teams&lt;/div&gt;&lt;div&gt;QA Team&lt;/div&gt;" style="rounded=1;whiteSpace=wrap;html=1;fillColor=#f8cecc;strokeColor=#b85450;" parent="4NxvAoO0kSFne4GdwrK2-29" vertex="1">
          <mxGeometry x="0.58" y="50" width="329.42" height="60" as="geometry" />
        </mxCell>
        <mxCell id="4NxvAoO0kSFne4GdwrK2-37" value="" style="verticalLabelPosition=bottom;html=1;verticalAlign=top;align=center;strokeColor=none;fillColor=#00BEF2;shape=mxgraph.azure.azure_active_directory;" parent="4NxvAoO0kSFne4GdwrK2-29" vertex="1">
          <mxGeometry x="20" y="130" width="47.5" height="50" as="geometry" />
        </mxCell>
        <mxCell id="4NxvAoO0kSFne4GdwrK2-38" value="&lt;h2&gt;Reporter &lt;span style=&quot;font-weight: normal;&quot;&gt;AD Access Package&lt;/span&gt;&lt;/h2&gt;" style="text;html=1;align=center;verticalAlign=middle;whiteSpace=wrap;rounded=0;" parent="4NxvAoO0kSFne4GdwrK2-29" vertex="1">
          <mxGeometry x="60" y="140" width="260" height="30" as="geometry" />
        </mxCell>
        <mxCell id="4NxvAoO0kSFne4GdwrK2-40" value="" style="image;aspect=fixed;html=1;points=[];align=center;fontSize=12;image=img/lib/azure2/identity/Azure_Active_Directory.svg;" parent="4NxvAoO0kSFne4GdwrK2-29" vertex="1">
          <mxGeometry x="116.79000000000002" y="270" width="32.81" height="30" as="geometry" />
        </mxCell>
        <mxCell id="4NxvAoO0kSFne4GdwrK2-41" value="" style="image;aspect=fixed;html=1;points=[];align=center;fontSize=12;image=img/lib/azure2/identity/Azure_Active_Directory.svg;" parent="4NxvAoO0kSFne4GdwrK2-29" vertex="1">
          <mxGeometry x="278.83000000000004" y="415" width="32.81" height="30" as="geometry" />
        </mxCell>
        <mxCell id="4NxvAoO0kSFne4GdwrK2-42" value="" style="image;aspect=fixed;html=1;points=[];align=center;fontSize=12;image=img/lib/azure2/identity/Azure_Active_Directory.svg;" parent="4NxvAoO0kSFne4GdwrK2-29" vertex="1">
          <mxGeometry x="140.00000000000003" y="420" width="32.81" height="30" as="geometry" />
        </mxCell>
        <mxCell id="AOAj3xcZdFScZATebxmy-3" value="ReadOnly PP/Prod" style="shape=image;imageAspect=0;aspect=fixed;verticalLabelPosition=bottom;verticalAlign=top;image=https://upload.wikimedia.org/wikipedia/commons/thumb/9/93/Amazon_Web_Services_Logo.svg/2560px-Amazon_Web_Services_Logo.svg.png;" vertex="1" parent="4NxvAoO0kSFne4GdwrK2-29">
          <mxGeometry x="191.39" y="250" width="83.6" height="50" as="geometry" />
        </mxCell>
        <mxCell id="AOAj3xcZdFScZATebxmy-4" value="" style="image;aspect=fixed;html=1;points=[];align=center;fontSize=12;image=img/lib/azure2/identity/Azure_Active_Directory.svg;" vertex="1" parent="4NxvAoO0kSFne4GdwrK2-29">
          <mxGeometry x="276.3800000000001" y="270" width="32.81" height="30" as="geometry" />
        </mxCell>
        <mxCell id="AOAj3xcZdFScZATebxmy-6" value="Opensearch read only" style="shape=image;imageAspect=0;aspect=fixed;verticalLabelPosition=bottom;verticalAlign=top;image=https://opensearch.org/wp-content/uploads/2025/01/opensearch_mark_default.png?ajs_aid=0f821998-c673-41e4-b3e2-64008b8ac4d4;" vertex="1" parent="4NxvAoO0kSFne4GdwrK2-29">
          <mxGeometry x="43.77999999999997" y="540" width="90" height="90" as="geometry" />
        </mxCell>
        <mxCell id="AOAj3xcZdFScZATebxmy-10" value="" style="image;aspect=fixed;html=1;points=[];align=center;fontSize=12;image=img/lib/azure2/identity/Azure_Active_Directory.svg;" vertex="1" parent="4NxvAoO0kSFne4GdwrK2-29">
          <mxGeometry x="115.39999999999998" y="600" width="32.81" height="30" as="geometry" />
        </mxCell>
        <mxCell id="4NxvAoO0kSFne4GdwrK2-46" value="" style="shape=mxgraph.mockup.containers.marginRect;rectMarginTop=10;strokeColor=#d6b656;strokeWidth=1;dashed=0;rounded=1;arcSize=5;recursiveResize=0;html=1;whiteSpace=wrap;fillColor=#fff2cc;" parent="1" vertex="1">
          <mxGeometry x="440" y="290" width="330.00000000000006" height="674" as="geometry" />
        </mxCell>
        <mxCell id="4NxvAoO0kSFne4GdwrK2-47" value="&lt;b&gt;SSP Contributor&lt;/b&gt;" style="shape=rect;strokeColor=#B09500;fillColor=#e3c800;strokeWidth=1;dashed=0;rounded=1;arcSize=20;fontSize=17;spacing=2;spacingTop=-2;align=center;autosize=1;spacingLeft=4;resizeWidth=0;resizeHeight=0;perimeter=none;html=1;whiteSpace=wrap;fontColor=#000000;" parent="4NxvAoO0kSFne4GdwrK2-46" vertex="1">
          <mxGeometry y="10" width="330" height="40" as="geometry" />
        </mxCell>
        <mxCell id="4NxvAoO0kSFne4GdwrK2-48" value="PowerUser DEV/QA" style="shape=image;imageAspect=0;aspect=fixed;verticalLabelPosition=bottom;verticalAlign=top;image=https://upload.wikimedia.org/wikipedia/commons/thumb/9/93/Amazon_Web_Services_Logo.svg/2560px-Amazon_Web_Services_Logo.svg.png;" parent="4NxvAoO0kSFne4GdwrK2-46" vertex="1">
          <mxGeometry x="31.800000000000004" y="250" width="83.6" height="50" as="geometry" />
        </mxCell>
        <mxCell id="4NxvAoO0kSFne4GdwrK2-49" value="role:readonly" style="shape=image;imageAspect=0;aspect=fixed;verticalLabelPosition=bottom;verticalAlign=top;image=https://www.opsmx.com/wp-content/uploads/2022/07/Argo-1-e1630327305635-1.png;" parent="4NxvAoO0kSFne4GdwrK2-46" vertex="1">
          <mxGeometry x="197.22000000000003" y="540" width="120.58" height="80" as="geometry" />
        </mxCell>
        <mxCell id="4NxvAoO0kSFne4GdwrK2-50" value="Port Prod" style="shape=image;imageAspect=0;aspect=fixed;verticalLabelPosition=bottom;verticalAlign=top;image=https://docs.port.io/img/logos/logo-light.svg;" parent="4NxvAoO0kSFne4GdwrK2-46" vertex="1">
          <mxGeometry x="27.95999999999999" y="400" width="121.64" height="40" as="geometry" />
        </mxCell>
        <mxCell id="4NxvAoO0kSFne4GdwrK2-53" value="SSP Team Members" style="rounded=1;whiteSpace=wrap;html=1;fillColor=#fff2cc;strokeColor=#d6b656;" parent="4NxvAoO0kSFne4GdwrK2-46" vertex="1">
          <mxGeometry x="0.58" y="50" width="329.42" height="60" as="geometry" />
        </mxCell>
        <mxCell id="4NxvAoO0kSFne4GdwrK2-54" value="" style="verticalLabelPosition=bottom;html=1;verticalAlign=top;align=center;strokeColor=none;fillColor=#00BEF2;shape=mxgraph.azure.azure_active_directory;" parent="4NxvAoO0kSFne4GdwrK2-46" vertex="1">
          <mxGeometry x="12.5" y="130" width="47.5" height="50" as="geometry" />
        </mxCell>
        <mxCell id="4NxvAoO0kSFne4GdwrK2-55" value="&lt;h2&gt;Contributor &lt;span style=&quot;font-weight: normal;&quot;&gt;AD Access Package&lt;/span&gt;&lt;/h2&gt;" style="text;html=1;align=center;verticalAlign=middle;whiteSpace=wrap;rounded=0;" parent="4NxvAoO0kSFne4GdwrK2-46" vertex="1">
          <mxGeometry x="60" y="140" width="270" height="30" as="geometry" />
        </mxCell>
        <mxCell id="4NxvAoO0kSFne4GdwrK2-57" value="" style="image;aspect=fixed;html=1;points=[];align=center;fontSize=12;image=img/lib/azure2/identity/Azure_Active_Directory.svg;" parent="4NxvAoO0kSFne4GdwrK2-46" vertex="1">
          <mxGeometry x="116.79000000000002" y="270" width="32.81" height="30" as="geometry" />
        </mxCell>
        <mxCell id="4NxvAoO0kSFne4GdwrK2-58" value="" style="image;aspect=fixed;html=1;points=[];align=center;fontSize=12;image=img/lib/azure2/identity/Azure_Active_Directory.svg;" parent="4NxvAoO0kSFne4GdwrK2-46" vertex="1">
          <mxGeometry x="283.6000000000001" y="600" width="32.81" height="30" as="geometry" />
        </mxCell>
        <mxCell id="4NxvAoO0kSFne4GdwrK2-59" value="" style="image;aspect=fixed;html=1;points=[];align=center;fontSize=12;image=img/lib/azure2/identity/Azure_Active_Directory.svg;" parent="4NxvAoO0kSFne4GdwrK2-46" vertex="1">
          <mxGeometry x="140.00000000000003" y="420" width="32.81" height="30" as="geometry" />
        </mxCell>
        <mxCell id="4NxvAoO0kSFne4GdwrK2-63" value="ReadOnly PP/Prod" style="shape=image;imageAspect=0;aspect=fixed;verticalLabelPosition=bottom;verticalAlign=top;image=https://upload.wikimedia.org/wikipedia/commons/thumb/9/93/Amazon_Web_Services_Logo.svg/2560px-Amazon_Web_Services_Logo.svg.png;" parent="4NxvAoO0kSFne4GdwrK2-46" vertex="1">
          <mxGeometry x="200" y="250" width="83.6" height="50" as="geometry" />
        </mxCell>
        <mxCell id="4NxvAoO0kSFne4GdwrK2-64" value="" style="image;aspect=fixed;html=1;points=[];align=center;fontSize=12;image=img/lib/azure2/identity/Azure_Active_Directory.svg;" parent="4NxvAoO0kSFne4GdwrK2-46" vertex="1">
          <mxGeometry x="284.99" y="270" width="32.81" height="30" as="geometry" />
        </mxCell>
        <mxCell id="AOAj3xcZdFScZATebxmy-1" value="Port Test" style="shape=image;imageAspect=0;aspect=fixed;verticalLabelPosition=bottom;verticalAlign=top;image=https://docs.port.io/img/logos/logo-light.svg;" vertex="1" parent="4NxvAoO0kSFne4GdwrK2-46">
          <mxGeometry x="190" y="400" width="121.64" height="40" as="geometry" />
        </mxCell>
        <mxCell id="AOAj3xcZdFScZATebxmy-2" value="" style="image;aspect=fixed;html=1;points=[];align=center;fontSize=12;image=img/lib/azure2/identity/Azure_Active_Directory.svg;" vertex="1" parent="4NxvAoO0kSFne4GdwrK2-46">
          <mxGeometry x="297.19000000000005" y="430" width="32.81" height="30" as="geometry" />
        </mxCell>
        <mxCell id="AOAj3xcZdFScZATebxmy-7" value="Opensearch read only" style="shape=image;imageAspect=0;aspect=fixed;verticalLabelPosition=bottom;verticalAlign=top;image=https://opensearch.org/wp-content/uploads/2025/01/opensearch_mark_default.png?ajs_aid=0f821998-c673-41e4-b3e2-64008b8ac4d4;" vertex="1" parent="4NxvAoO0kSFne4GdwrK2-46">
          <mxGeometry x="43.77999999999997" y="535" width="90" height="90" as="geometry" />
        </mxCell>
        <mxCell id="AOAj3xcZdFScZATebxmy-9" value="" style="image;aspect=fixed;html=1;points=[];align=center;fontSize=12;image=img/lib/azure2/identity/Azure_Active_Directory.svg;" vertex="1" parent="4NxvAoO0kSFne4GdwrK2-46">
          <mxGeometry x="116.78999999999996" y="595" width="32.81" height="30" as="geometry" />
        </mxCell>
        <mxCell id="4NxvAoO0kSFne4GdwrK2-66" value="&lt;b&gt;New Access Requests for Access Packages&lt;/b&gt;" style="verticalLabelPosition=bottom;html=1;verticalAlign=top;align=center;strokeColor=none;fillColor=#00BEF2;shape=mxgraph.azure.azure_active_directory;" parent="1" vertex="1">
          <mxGeometry x="560" y="-10" width="90" height="90" as="geometry" />
        </mxCell>
        <mxCell id="4NxvAoO0kSFne4GdwrK2-67" style="edgeStyle=orthogonalEdgeStyle;rounded=0;orthogonalLoop=1;jettySize=auto;html=1;entryX=0.5;entryY=-0.025;entryDx=0;entryDy=0;entryPerimeter=0;" parent="1" source="4NxvAoO0kSFne4GdwrK2-66" target="4NxvAoO0kSFne4GdwrK2-47" edge="1">
          <mxGeometry relative="1" as="geometry" />
        </mxCell>
        <mxCell id="4NxvAoO0kSFne4GdwrK2-68" style="edgeStyle=orthogonalEdgeStyle;rounded=0;orthogonalLoop=1;jettySize=auto;html=1;entryX=0.488;entryY=-0.025;entryDx=0;entryDy=0;entryPerimeter=0;" parent="1" source="4NxvAoO0kSFne4GdwrK2-66" target="4NxvAoO0kSFne4GdwrK2-7" edge="1">
          <mxGeometry relative="1" as="geometry" />
        </mxCell>
        <mxCell id="4NxvAoO0kSFne4GdwrK2-69" style="edgeStyle=orthogonalEdgeStyle;rounded=0;orthogonalLoop=1;jettySize=auto;html=1;entryX=0.509;entryY=-0.05;entryDx=0;entryDy=0;entryPerimeter=0;" parent="1" source="4NxvAoO0kSFne4GdwrK2-66" target="4NxvAoO0kSFne4GdwrK2-30" edge="1">
          <mxGeometry relative="1" as="geometry" />
        </mxCell>
        <mxCell id="AOAj3xcZdFScZATebxmy-27" value="" style="shape=mxgraph.mockup.containers.marginRect;rectMarginTop=10;strokeColor=#6c8ebf;strokeWidth=1;dashed=0;rounded=1;arcSize=5;recursiveResize=0;html=1;whiteSpace=wrap;fillColor=#dae8fc;" vertex="1" parent="1">
          <mxGeometry x="1160" y="290" width="330" height="674" as="geometry" />
        </mxCell>
        <mxCell id="AOAj3xcZdFScZATebxmy-28" value="&lt;b&gt;Application Scope&lt;/b&gt;" style="shape=rect;strokeColor=#006EAF;fillColor=#1ba1e2;strokeWidth=1;dashed=0;rounded=1;arcSize=20;fontSize=17;spacing=2;spacingTop=-2;align=center;autosize=1;spacingLeft=4;resizeWidth=0;resizeHeight=0;perimeter=none;html=1;whiteSpace=wrap;fontColor=#ffffff;" vertex="1" parent="AOAj3xcZdFScZATebxmy-27">
          <mxGeometry y="10" width="330" height="40" as="geometry" />
        </mxCell>
        <mxCell id="AOAj3xcZdFScZATebxmy-29" value="PowerUser DEV/QA &#xa;only for Project" style="shape=image;imageAspect=0;aspect=fixed;verticalLabelPosition=bottom;verticalAlign=top;image=https://upload.wikimedia.org/wikipedia/commons/thumb/9/93/Amazon_Web_Services_Logo.svg/2560px-Amazon_Web_Services_Logo.svg.png;" vertex="1" parent="AOAj3xcZdFScZATebxmy-27">
          <mxGeometry x="31.800000000000004" y="250" width="83.6" height="50" as="geometry" />
        </mxCell>
        <mxCell id="AOAj3xcZdFScZATebxmy-30" value="role:sonicplatform" style="shape=image;imageAspect=0;aspect=fixed;verticalLabelPosition=bottom;verticalAlign=top;image=https://www.opsmx.com/wp-content/uploads/2022/07/Argo-1-e1630327305635-1.png;" vertex="1" parent="AOAj3xcZdFScZATebxmy-27">
          <mxGeometry x="180" y="235" width="120.58" height="80" as="geometry" />
        </mxCell>
        <mxCell id="AOAj3xcZdFScZATebxmy-33" value="Application Team" style="rounded=1;whiteSpace=wrap;html=1;fillColor=#dae8fc;strokeColor=#6c8ebf;" vertex="1" parent="AOAj3xcZdFScZATebxmy-27">
          <mxGeometry x="0.58" y="50" width="329.42" height="60" as="geometry" />
        </mxCell>
        <mxCell id="AOAj3xcZdFScZATebxmy-34" value="" style="verticalLabelPosition=bottom;html=1;verticalAlign=top;align=center;strokeColor=none;fillColor=#00BEF2;shape=mxgraph.azure.azure_active_directory;" vertex="1" parent="AOAj3xcZdFScZATebxmy-27">
          <mxGeometry x="20" y="130" width="47.5" height="50" as="geometry" />
        </mxCell>
        <mxCell id="AOAj3xcZdFScZATebxmy-35" value="&lt;h2&gt;Admin &lt;span style=&quot;font-weight: normal;&quot;&gt;AD Access Package&lt;/span&gt;&lt;/h2&gt;" style="text;html=1;align=center;verticalAlign=middle;whiteSpace=wrap;rounded=0;" vertex="1" parent="AOAj3xcZdFScZATebxmy-27">
          <mxGeometry x="80" y="140" width="230" height="30" as="geometry" />
        </mxCell>
        <mxCell id="AOAj3xcZdFScZATebxmy-37" value="" style="image;aspect=fixed;html=1;points=[];align=center;fontSize=12;image=img/lib/azure2/identity/Azure_Active_Directory.svg;" vertex="1" parent="AOAj3xcZdFScZATebxmy-27">
          <mxGeometry x="116.79000000000002" y="270" width="32.81" height="30" as="geometry" />
        </mxCell>
        <mxCell id="AOAj3xcZdFScZATebxmy-38" value="" style="image;aspect=fixed;html=1;points=[];align=center;fontSize=12;image=img/lib/azure2/identity/Azure_Active_Directory.svg;" vertex="1" parent="AOAj3xcZdFScZATebxmy-27">
          <mxGeometry x="268.83000000000004" y="270" width="32.81" height="30" as="geometry" />
        </mxCell>
        <mxCell id="AOAj3xcZdFScZATebxmy-49" value="Argo Workflows" style="shape=image;imageAspect=0;aspect=fixed;verticalLabelPosition=bottom;verticalAlign=top;image=https://www.opsmx.com/wp-content/uploads/2022/07/Argo-1-e1630327305635-1.png;" vertex="1" parent="AOAj3xcZdFScZATebxmy-27">
          <mxGeometry x="20" y="370" width="120.58" height="80" as="geometry" />
        </mxCell>
        <mxCell id="AOAj3xcZdFScZATebxmy-50" value="" style="image;aspect=fixed;html=1;points=[];align=center;fontSize=12;image=img/lib/azure2/identity/Azure_Active_Directory.svg;" vertex="1" parent="AOAj3xcZdFScZATebxmy-27">
          <mxGeometry x="108.82999999999993" y="405" width="32.81" height="30" as="geometry" />
        </mxCell>
        <mxCell id="AOAj3xcZdFScZATebxmy-44" value="sonicplatform AD group" style="image;aspect=fixed;html=1;points=[];align=center;fontSize=12;image=img/lib/azure2/identity/Azure_Active_Directory.svg;" vertex="1" parent="1">
          <mxGeometry x="1180" width="76.56" height="70" as="geometry" />
        </mxCell>
        <mxCell id="AOAj3xcZdFScZATebxmy-46" value="sonicbot AD group" style="image;aspect=fixed;html=1;points=[];align=center;fontSize=12;image=img/lib/azure2/identity/Azure_Active_Directory.svg;" vertex="1" parent="1">
          <mxGeometry x="1360" width="76.56" height="70" as="geometry" />
        </mxCell>
        <mxCell id="AOAj3xcZdFScZATebxmy-47" style="edgeStyle=orthogonalEdgeStyle;rounded=0;orthogonalLoop=1;jettySize=auto;html=1;entryX=0.497;entryY=0;entryDx=0;entryDy=0;entryPerimeter=0;" edge="1" parent="1" source="AOAj3xcZdFScZATebxmy-44" target="AOAj3xcZdFScZATebxmy-28">
          <mxGeometry relative="1" as="geometry" />
        </mxCell>
        <mxCell id="AOAj3xcZdFScZATebxmy-48" style="edgeStyle=orthogonalEdgeStyle;rounded=0;orthogonalLoop=1;jettySize=auto;html=1;entryX=0.494;entryY=-0.05;entryDx=0;entryDy=0;entryPerimeter=0;" edge="1" parent="1" source="AOAj3xcZdFScZATebxmy-46" target="AOAj3xcZdFScZATebxmy-28">
          <mxGeometry relative="1" as="geometry" />
        </mxCell>
      </root>
    </mxGraphModel>
  </diagram>
  <diagram id="fT2G640U_IgpDJDyHZrR" name="Terraform Project Segregation Arch">
    <mxGraphModel dx="3153" dy="1137" grid="1" gridSize="10" guides="1" tooltips="1" connect="1" arrows="1" fold="1" page="1" pageScale="1" pageWidth="850" pageHeight="1100" math="0" shadow="0">
      <root>
        <mxCell id="0" />
        <mxCell id="1" parent="0" />
        <mxCell id="sOBfull25ev7dmkhhFgI-73" style="edgeStyle=orthogonalEdgeStyle;rounded=0;orthogonalLoop=1;jettySize=auto;html=1;entryX=0.5;entryY=0;entryDx=0;entryDy=0;exitX=0.5;exitY=1;exitDx=0;exitDy=0;" edge="1" parent="1" source="sOBfull25ev7dmkhhFgI-7" target="sOBfull25ev7dmkhhFgI-26">
          <mxGeometry relative="1" as="geometry" />
        </mxCell>
        <mxCell id="sOBfull25ev7dmkhhFgI-74" style="edgeStyle=orthogonalEdgeStyle;rounded=0;orthogonalLoop=1;jettySize=auto;html=1;entryX=0.5;entryY=0;entryDx=0;entryDy=0;exitX=0.5;exitY=1;exitDx=0;exitDy=0;" edge="1" parent="1" source="sOBfull25ev7dmkhhFgI-7" target="sOBfull25ev7dmkhhFgI-57">
          <mxGeometry relative="1" as="geometry" />
        </mxCell>
        <mxCell id="sOBfull25ev7dmkhhFgI-75" style="edgeStyle=orthogonalEdgeStyle;rounded=0;orthogonalLoop=1;jettySize=auto;html=1;entryX=0.5;entryY=0;entryDx=0;entryDy=0;" edge="1" parent="1" source="sOBfull25ev7dmkhhFgI-7" target="sOBfull25ev7dmkhhFgI-45">
          <mxGeometry relative="1" as="geometry" />
        </mxCell>
        <mxCell id="sOBfull25ev7dmkhhFgI-7" value="SSP Shared Resources" style="swimlane;whiteSpace=wrap;html=1;" vertex="1" parent="1">
          <mxGeometry x="270" y="120" width="350" height="460" as="geometry">
            <mxRectangle x="270" y="120" width="170" height="30" as="alternateBounds" />
          </mxGeometry>
        </mxCell>
        <mxCell id="sOBfull25ev7dmkhhFgI-202" value="Terraform Configuration (tf files)" style="swimlane;align=left;" vertex="1" parent="sOBfull25ev7dmkhhFgI-7">
          <mxGeometry x="10" y="30" width="330" height="260" as="geometry" />
        </mxCell>
        <mxCell id="sOBfull25ev7dmkhhFgI-208" value="Amazon EKS" style="sketch=0;outlineConnect=0;fontColor=#232F3E;gradientColor=none;strokeColor=#ffffff;fillColor=#232F3E;dashed=0;verticalLabelPosition=middle;verticalAlign=bottom;align=center;html=1;whiteSpace=wrap;fontSize=10;fontStyle=1;spacing=3;shape=mxgraph.aws4.productIcon;prIcon=mxgraph.aws4.eks;" vertex="1" parent="sOBfull25ev7dmkhhFgI-202">
          <mxGeometry x="15" y="35" width="80" height="100" as="geometry" />
        </mxCell>
        <mxCell id="sOBfull25ev7dmkhhFgI-209" value="Route53" style="sketch=0;points=[[0,0,0],[0.25,0,0],[0.5,0,0],[0.75,0,0],[1,0,0],[0,1,0],[0.25,1,0],[0.5,1,0],[0.75,1,0],[1,1,0],[0,0.25,0],[0,0.5,0],[0,0.75,0],[1,0.25,0],[1,0.5,0],[1,0.75,0]];outlineConnect=0;fontColor=#232F3E;fillColor=#8C4FFF;strokeColor=#ffffff;dashed=0;verticalLabelPosition=bottom;verticalAlign=top;align=center;html=1;fontSize=12;fontStyle=0;aspect=fixed;shape=mxgraph.aws4.resourceIcon;resIcon=mxgraph.aws4.route_53;" vertex="1" parent="sOBfull25ev7dmkhhFgI-202">
          <mxGeometry x="135" y="35" width="78" height="78" as="geometry" />
        </mxCell>
        <mxCell id="sOBfull25ev7dmkhhFgI-13" value="Networking" style="outlineConnect=0;dashed=0;verticalLabelPosition=bottom;verticalAlign=top;align=center;html=1;shape=mxgraph.aws3.virtual_private_cloud;fillColor=#F58534;gradientColor=none;" vertex="1" parent="sOBfull25ev7dmkhhFgI-202">
          <mxGeometry x="235" y="35" width="79.5" height="54" as="geometry" />
        </mxCell>
        <mxCell id="sOBfull25ev7dmkhhFgI-211" value="transit gw" style="sketch=0;points=[[0,0,0],[0.25,0,0],[0.5,0,0],[0.75,0,0],[1,0,0],[0,1,0],[0.25,1,0],[0.5,1,0],[0.75,1,0],[1,1,0],[0,0.25,0],[0,0.5,0],[0,0.75,0],[1,0.25,0],[1,0.5,0],[1,0.75,0]];outlineConnect=0;fontColor=#232F3E;fillColor=#8C4FFF;strokeColor=#ffffff;dashed=0;verticalLabelPosition=bottom;verticalAlign=top;align=center;html=1;fontSize=12;fontStyle=0;aspect=fixed;shape=mxgraph.aws4.resourceIcon;resIcon=mxgraph.aws4.transit_gateway;" vertex="1" parent="sOBfull25ev7dmkhhFgI-202">
          <mxGeometry x="17" y="160" width="78" height="78" as="geometry" />
        </mxCell>
        <mxCell id="sOBfull25ev7dmkhhFgI-213" value="Bastion Host" style="shape=rect;fillColor=#FA4D56;aspect=fixed;resizable=0;labelPosition=center;verticalLabelPosition=bottom;align=center;verticalAlign=top;strokeColor=none;fontSize=14;" vertex="1" parent="sOBfull25ev7dmkhhFgI-202">
          <mxGeometry x="150" y="170" width="48" height="48" as="geometry" />
        </mxCell>
        <mxCell id="sOBfull25ev7dmkhhFgI-214" value="" style="fillColor=#ffffff;strokeColor=none;dashed=0;outlineConnect=0;html=1;labelPosition=center;verticalLabelPosition=bottom;verticalAlign=top;part=1;movable=0;resizable=0;rotatable=0;shape=mxgraph.ibm_cloud.bastion-host" vertex="1" parent="sOBfull25ev7dmkhhFgI-213">
          <mxGeometry width="24" height="24" relative="1" as="geometry">
            <mxPoint x="12" y="12" as="offset" />
          </mxGeometry>
        </mxCell>
        <mxCell id="sOBfull25ev7dmkhhFgI-215" value="opensearch" style="sketch=0;points=[[0,0,0],[0.25,0,0],[0.5,0,0],[0.75,0,0],[1,0,0],[0,1,0],[0.25,1,0],[0.5,1,0],[0.75,1,0],[1,1,0],[0,0.25,0],[0,0.5,0],[0,0.75,0],[1,0.25,0],[1,0.5,0],[1,0.75,0]];outlineConnect=0;fontColor=#232F3E;fillColor=#8C4FFF;strokeColor=#ffffff;dashed=0;verticalLabelPosition=bottom;verticalAlign=top;align=center;html=1;fontSize=12;fontStyle=0;aspect=fixed;shape=mxgraph.aws4.resourceIcon;resIcon=mxgraph.aws4.elasticsearch_service;" vertex="1" parent="sOBfull25ev7dmkhhFgI-202">
          <mxGeometry x="235" y="160" width="78" height="78" as="geometry" />
        </mxCell>
        <mxCell id="sOBfull25ev7dmkhhFgI-216" value="&lt;div align=&quot;left&quot;&gt;&lt;b&gt;Terraform Parameters (region/env tfvars files)&lt;/b&gt;&lt;/div&gt;" style="swimlane;fontStyle=0;childLayout=stackLayout;horizontal=1;startSize=30;horizontalStack=0;resizeParent=1;resizeParentMax=0;resizeLast=0;collapsible=1;marginBottom=0;whiteSpace=wrap;html=1;align=left;" vertex="1" parent="sOBfull25ev7dmkhhFgI-7">
          <mxGeometry x="10" y="312.5" width="330" height="120" as="geometry" />
        </mxCell>
        <mxCell id="sOBfull25ev7dmkhhFgI-217" value="dev-us-west-2.tfvars" style="text;strokeColor=none;fillColor=none;align=left;verticalAlign=middle;spacingLeft=4;spacingRight=4;overflow=hidden;points=[[0,0.5],[1,0.5]];portConstraint=eastwest;rotatable=0;whiteSpace=wrap;html=1;" vertex="1" parent="sOBfull25ev7dmkhhFgI-216">
          <mxGeometry y="30" width="330" height="30" as="geometry" />
        </mxCell>
        <mxCell id="sOBfull25ev7dmkhhFgI-218" value="qa-us-west-2.tfvars" style="text;strokeColor=none;fillColor=none;align=left;verticalAlign=middle;spacingLeft=4;spacingRight=4;overflow=hidden;points=[[0,0.5],[1,0.5]];portConstraint=eastwest;rotatable=0;whiteSpace=wrap;html=1;" vertex="1" parent="sOBfull25ev7dmkhhFgI-216">
          <mxGeometry y="60" width="330" height="30" as="geometry" />
        </mxCell>
        <mxCell id="sOBfull25ev7dmkhhFgI-219" value="prod-us-west-2.tfvars" style="text;strokeColor=none;fillColor=none;align=left;verticalAlign=middle;spacingLeft=4;spacingRight=4;overflow=hidden;points=[[0,0.5],[1,0.5]];portConstraint=eastwest;rotatable=0;whiteSpace=wrap;html=1;" vertex="1" parent="sOBfull25ev7dmkhhFgI-216">
          <mxGeometry y="90" width="330" height="30" as="geometry" />
        </mxCell>
        <mxCell id="sOBfull25ev7dmkhhFgI-26" value="Sonicplatform Resources" style="swimlane;whiteSpace=wrap;html=1;" vertex="1" parent="1">
          <mxGeometry x="-210" y="730" width="350" height="460" as="geometry">
            <mxRectangle x="270" y="120" width="170" height="30" as="alternateBounds" />
          </mxGeometry>
        </mxCell>
        <mxCell id="sOBfull25ev7dmkhhFgI-145" value="Terraform Configuration (tf files)" style="swimlane;align=left;" vertex="1" parent="sOBfull25ev7dmkhhFgI-26">
          <mxGeometry x="10" y="30" width="330" height="260" as="geometry" />
        </mxCell>
        <mxCell id="sOBfull25ev7dmkhhFgI-42" value="Lambda" style="sketch=0;points=[[0,0,0],[0.25,0,0],[0.5,0,0],[0.75,0,0],[1,0,0],[0,1,0],[0.25,1,0],[0.5,1,0],[0.75,1,0],[1,1,0],[0,0.25,0],[0,0.5,0],[0,0.75,0],[1,0.25,0],[1,0.5,0],[1,0.75,0]];outlineConnect=0;fontColor=#232F3E;fillColor=#ED7100;strokeColor=#ffffff;dashed=0;verticalLabelPosition=bottom;verticalAlign=top;align=center;html=1;fontSize=12;fontStyle=0;aspect=fixed;shape=mxgraph.aws4.resourceIcon;resIcon=mxgraph.aws4.lambda;" vertex="1" parent="sOBfull25ev7dmkhhFgI-145">
          <mxGeometry x="10" y="160" width="78" height="78" as="geometry" />
        </mxCell>
        <mxCell id="sOBfull25ev7dmkhhFgI-39" value="Redshift" style="sketch=0;points=[[0,0,0],[0.25,0,0],[0.5,0,0],[0.75,0,0],[1,0,0],[0,1,0],[0.25,1,0],[0.5,1,0],[0.75,1,0],[1,1,0],[0,0.25,0],[0,0.5,0],[0,0.75,0],[1,0.25,0],[1,0.5,0],[1,0.75,0]];outlineConnect=0;fontColor=#232F3E;fillColor=#8C4FFF;strokeColor=#ffffff;dashed=0;verticalLabelPosition=bottom;verticalAlign=top;align=center;html=1;fontSize=12;fontStyle=0;aspect=fixed;shape=mxgraph.aws4.resourceIcon;resIcon=mxgraph.aws4.redshift;" vertex="1" parent="sOBfull25ev7dmkhhFgI-145">
          <mxGeometry x="10" y="40" width="78" height="78" as="geometry" />
        </mxCell>
        <mxCell id="sOBfull25ev7dmkhhFgI-40" value="Elasticache" style="sketch=0;points=[[0,0,0],[0.25,0,0],[0.5,0,0],[0.75,0,0],[1,0,0],[0,1,0],[0.25,1,0],[0.5,1,0],[0.75,1,0],[1,1,0],[0,0.25,0],[0,0.5,0],[0,0.75,0],[1,0.25,0],[1,0.5,0],[1,0.75,0]];outlineConnect=0;fontColor=#232F3E;fillColor=#C925D1;strokeColor=#ffffff;dashed=0;verticalLabelPosition=bottom;verticalAlign=top;align=center;html=1;fontSize=12;fontStyle=0;aspect=fixed;shape=mxgraph.aws4.resourceIcon;resIcon=mxgraph.aws4.elasticache;" vertex="1" parent="sOBfull25ev7dmkhhFgI-145">
          <mxGeometry x="126" y="40" width="78" height="78" as="geometry" />
        </mxCell>
        <mxCell id="sOBfull25ev7dmkhhFgI-43" value="S3" style="sketch=0;points=[[0,0,0],[0.25,0,0],[0.5,0,0],[0.75,0,0],[1,0,0],[0,1,0],[0.25,1,0],[0.5,1,0],[0.75,1,0],[1,1,0],[0,0.25,0],[0,0.5,0],[0,0.75,0],[1,0.25,0],[1,0.5,0],[1,0.75,0]];outlineConnect=0;fontColor=#232F3E;fillColor=#7AA116;strokeColor=#ffffff;dashed=0;verticalLabelPosition=bottom;verticalAlign=top;align=center;html=1;fontSize=12;fontStyle=0;aspect=fixed;shape=mxgraph.aws4.resourceIcon;resIcon=mxgraph.aws4.s3;" vertex="1" parent="sOBfull25ev7dmkhhFgI-145">
          <mxGeometry x="130" y="160" width="78" height="78" as="geometry" />
        </mxCell>
        <mxCell id="sOBfull25ev7dmkhhFgI-41" value="Location" style="sketch=0;points=[[0,0,0],[0.25,0,0],[0.5,0,0],[0.75,0,0],[1,0,0],[0,1,0],[0.25,1,0],[0.5,1,0],[0.75,1,0],[1,1,0],[0,0.25,0],[0,0.5,0],[0,0.75,0],[1,0.25,0],[1,0.5,0],[1,0.75,0]];outlineConnect=0;fontColor=#232F3E;fillColor=#DD344C;strokeColor=#ffffff;dashed=0;verticalLabelPosition=bottom;verticalAlign=top;align=center;html=1;fontSize=12;fontStyle=0;aspect=fixed;shape=mxgraph.aws4.resourceIcon;resIcon=mxgraph.aws4.location_service;" vertex="1" parent="sOBfull25ev7dmkhhFgI-145">
          <mxGeometry x="240" y="40" width="78" height="78" as="geometry" />
        </mxCell>
        <mxCell id="sOBfull25ev7dmkhhFgI-44" value="EMR" style="sketch=0;points=[[0,0,0],[0.25,0,0],[0.5,0,0],[0.75,0,0],[1,0,0],[0,1,0],[0.25,1,0],[0.5,1,0],[0.75,1,0],[1,1,0],[0,0.25,0],[0,0.5,0],[0,0.75,0],[1,0.25,0],[1,0.5,0],[1,0.75,0]];outlineConnect=0;fontColor=#232F3E;fillColor=#8C4FFF;strokeColor=#ffffff;dashed=0;verticalLabelPosition=bottom;verticalAlign=top;align=center;html=1;fontSize=12;fontStyle=0;aspect=fixed;shape=mxgraph.aws4.resourceIcon;resIcon=mxgraph.aws4.emr;" vertex="1" parent="sOBfull25ev7dmkhhFgI-145">
          <mxGeometry x="240" y="160" width="78" height="78" as="geometry" />
        </mxCell>
        <mxCell id="sOBfull25ev7dmkhhFgI-35" value="&lt;div align=&quot;left&quot;&gt;&lt;b&gt;Terraform Parameters (region/env tfvars files)&lt;/b&gt;&lt;/div&gt;" style="swimlane;fontStyle=0;childLayout=stackLayout;horizontal=1;startSize=30;horizontalStack=0;resizeParent=1;resizeParentMax=0;resizeLast=0;collapsible=1;marginBottom=0;whiteSpace=wrap;html=1;align=left;" vertex="1" parent="sOBfull25ev7dmkhhFgI-26">
          <mxGeometry x="10" y="310" width="330" height="120" as="geometry" />
        </mxCell>
        <mxCell id="sOBfull25ev7dmkhhFgI-36" value="dev-us-west-2.tfvars" style="text;strokeColor=none;fillColor=none;align=left;verticalAlign=middle;spacingLeft=4;spacingRight=4;overflow=hidden;points=[[0,0.5],[1,0.5]];portConstraint=eastwest;rotatable=0;whiteSpace=wrap;html=1;" vertex="1" parent="sOBfull25ev7dmkhhFgI-35">
          <mxGeometry y="30" width="330" height="30" as="geometry" />
        </mxCell>
        <mxCell id="sOBfull25ev7dmkhhFgI-37" value="qa-us-west-2.tfvars" style="text;strokeColor=none;fillColor=none;align=left;verticalAlign=middle;spacingLeft=4;spacingRight=4;overflow=hidden;points=[[0,0.5],[1,0.5]];portConstraint=eastwest;rotatable=0;whiteSpace=wrap;html=1;" vertex="1" parent="sOBfull25ev7dmkhhFgI-35">
          <mxGeometry y="60" width="330" height="30" as="geometry" />
        </mxCell>
        <mxCell id="sOBfull25ev7dmkhhFgI-38" value="prod-us-west-2.tfvars" style="text;strokeColor=none;fillColor=none;align=left;verticalAlign=middle;spacingLeft=4;spacingRight=4;overflow=hidden;points=[[0,0.5],[1,0.5]];portConstraint=eastwest;rotatable=0;whiteSpace=wrap;html=1;" vertex="1" parent="sOBfull25ev7dmkhhFgI-35">
          <mxGeometry y="90" width="330" height="30" as="geometry" />
        </mxCell>
        <mxCell id="sOBfull25ev7dmkhhFgI-45" value="Sonicbot Resources" style="swimlane;whiteSpace=wrap;html=1;" vertex="1" parent="1">
          <mxGeometry x="270" y="730" width="350" height="460" as="geometry">
            <mxRectangle x="270" y="120" width="170" height="30" as="alternateBounds" />
          </mxGeometry>
        </mxCell>
        <mxCell id="sOBfull25ev7dmkhhFgI-168" value="&lt;div align=&quot;left&quot;&gt;&lt;b&gt;Terraform Parameters (region/env tfvars files)&lt;/b&gt;&lt;/div&gt;" style="swimlane;fontStyle=0;childLayout=stackLayout;horizontal=1;startSize=30;horizontalStack=0;resizeParent=1;resizeParentMax=0;resizeLast=0;collapsible=1;marginBottom=0;whiteSpace=wrap;html=1;align=left;" vertex="1" parent="sOBfull25ev7dmkhhFgI-45">
          <mxGeometry x="10" y="310" width="330" height="120" as="geometry" />
        </mxCell>
        <mxCell id="sOBfull25ev7dmkhhFgI-169" value="dev-us-west-2.tfvars" style="text;strokeColor=none;fillColor=none;align=left;verticalAlign=middle;spacingLeft=4;spacingRight=4;overflow=hidden;points=[[0,0.5],[1,0.5]];portConstraint=eastwest;rotatable=0;whiteSpace=wrap;html=1;" vertex="1" parent="sOBfull25ev7dmkhhFgI-168">
          <mxGeometry y="30" width="330" height="30" as="geometry" />
        </mxCell>
        <mxCell id="sOBfull25ev7dmkhhFgI-170" value="qa-us-west-2.tfvars" style="text;strokeColor=none;fillColor=none;align=left;verticalAlign=middle;spacingLeft=4;spacingRight=4;overflow=hidden;points=[[0,0.5],[1,0.5]];portConstraint=eastwest;rotatable=0;whiteSpace=wrap;html=1;" vertex="1" parent="sOBfull25ev7dmkhhFgI-168">
          <mxGeometry y="60" width="330" height="30" as="geometry" />
        </mxCell>
        <mxCell id="sOBfull25ev7dmkhhFgI-171" value="prod-us-west-2.tfvars" style="text;strokeColor=none;fillColor=none;align=left;verticalAlign=middle;spacingLeft=4;spacingRight=4;overflow=hidden;points=[[0,0.5],[1,0.5]];portConstraint=eastwest;rotatable=0;whiteSpace=wrap;html=1;" vertex="1" parent="sOBfull25ev7dmkhhFgI-168">
          <mxGeometry y="90" width="330" height="30" as="geometry" />
        </mxCell>
        <mxCell id="sOBfull25ev7dmkhhFgI-195" value="Terraform Configuration (tf files)" style="swimlane;align=left;" vertex="1" parent="sOBfull25ev7dmkhhFgI-45">
          <mxGeometry x="10" y="30" width="330" height="260" as="geometry" />
        </mxCell>
        <mxCell id="sOBfull25ev7dmkhhFgI-196" value="Bedrock" style="sketch=0;points=[[0,0,0],[0.25,0,0],[0.5,0,0],[0.75,0,0],[1,0,0],[0,1,0],[0.25,1,0],[0.5,1,0],[0.75,1,0],[1,1,0],[0,0.25,0],[0,0.5,0],[0,0.75,0],[1,0.25,0],[1,0.5,0],[1,0.75,0]];outlineConnect=0;fontColor=#232F3E;fillColor=#01A88D;strokeColor=#ffffff;dashed=0;verticalLabelPosition=bottom;verticalAlign=top;align=center;html=1;fontSize=12;fontStyle=0;aspect=fixed;shape=mxgraph.aws4.resourceIcon;resIcon=mxgraph.aws4.bedrock;" vertex="1" parent="sOBfull25ev7dmkhhFgI-195">
          <mxGeometry x="20" y="40" width="78" height="78" as="geometry" />
        </mxCell>
        <mxCell id="sOBfull25ev7dmkhhFgI-197" value="Elasticache" style="sketch=0;points=[[0,0,0],[0.25,0,0],[0.5,0,0],[0.75,0,0],[1,0,0],[0,1,0],[0.25,1,0],[0.5,1,0],[0.75,1,0],[1,1,0],[0,0.25,0],[0,0.5,0],[0,0.75,0],[1,0.25,0],[1,0.5,0],[1,0.75,0]];outlineConnect=0;fontColor=#232F3E;fillColor=#C925D1;strokeColor=#ffffff;dashed=0;verticalLabelPosition=bottom;verticalAlign=top;align=center;html=1;fontSize=12;fontStyle=0;aspect=fixed;shape=mxgraph.aws4.resourceIcon;resIcon=mxgraph.aws4.elasticache;" vertex="1" parent="sOBfull25ev7dmkhhFgI-195">
          <mxGeometry x="140" y="40" width="78" height="78" as="geometry" />
        </mxCell>
        <mxCell id="sOBfull25ev7dmkhhFgI-198" value="OS Serverless" style="sketch=0;outlineConnect=0;fontColor=#232F3E;gradientColor=none;fillColor=#8C4FFF;strokeColor=none;dashed=0;verticalLabelPosition=bottom;verticalAlign=top;align=center;html=1;fontSize=12;fontStyle=0;aspect=fixed;pointerEvents=1;shape=mxgraph.aws4.opensearch_service_data_node;" vertex="1" parent="sOBfull25ev7dmkhhFgI-195">
          <mxGeometry x="240" y="40" width="78" height="78" as="geometry" />
        </mxCell>
        <mxCell id="sOBfull25ev7dmkhhFgI-199" value="Lambda" style="sketch=0;points=[[0,0,0],[0.25,0,0],[0.5,0,0],[0.75,0,0],[1,0,0],[0,1,0],[0.25,1,0],[0.5,1,0],[0.75,1,0],[1,1,0],[0,0.25,0],[0,0.5,0],[0,0.75,0],[1,0.25,0],[1,0.5,0],[1,0.75,0]];outlineConnect=0;fontColor=#232F3E;fillColor=#ED7100;strokeColor=#ffffff;dashed=0;verticalLabelPosition=bottom;verticalAlign=top;align=center;html=1;fontSize=12;fontStyle=0;aspect=fixed;shape=mxgraph.aws4.resourceIcon;resIcon=mxgraph.aws4.lambda;" vertex="1" parent="sOBfull25ev7dmkhhFgI-195">
          <mxGeometry x="20" y="160" width="78" height="78" as="geometry" />
        </mxCell>
        <mxCell id="sOBfull25ev7dmkhhFgI-200" value="S3" style="sketch=0;points=[[0,0,0],[0.25,0,0],[0.5,0,0],[0.75,0,0],[1,0,0],[0,1,0],[0.25,1,0],[0.5,1,0],[0.75,1,0],[1,1,0],[0,0.25,0],[0,0.5,0],[0,0.75,0],[1,0.25,0],[1,0.5,0],[1,0.75,0]];outlineConnect=0;fontColor=#232F3E;fillColor=#7AA116;strokeColor=#ffffff;dashed=0;verticalLabelPosition=bottom;verticalAlign=top;align=center;html=1;fontSize=12;fontStyle=0;aspect=fixed;shape=mxgraph.aws4.resourceIcon;resIcon=mxgraph.aws4.s3;" vertex="1" parent="sOBfull25ev7dmkhhFgI-195">
          <mxGeometry x="140" y="160" width="78" height="78" as="geometry" />
        </mxCell>
        <mxCell id="sOBfull25ev7dmkhhFgI-57" value="SMA Resources" style="swimlane;whiteSpace=wrap;html=1;" vertex="1" parent="1">
          <mxGeometry x="740" y="730" width="350" height="460" as="geometry">
            <mxRectangle x="270" y="120" width="170" height="30" as="alternateBounds" />
          </mxGeometry>
        </mxCell>
        <mxCell id="sOBfull25ev7dmkhhFgI-172" value="&lt;div align=&quot;left&quot;&gt;&lt;b&gt;Terraform Parameters (region/env tfvars files)&lt;/b&gt;&lt;/div&gt;" style="swimlane;fontStyle=0;childLayout=stackLayout;horizontal=1;startSize=30;horizontalStack=0;resizeParent=1;resizeParentMax=0;resizeLast=0;collapsible=1;marginBottom=0;whiteSpace=wrap;html=1;align=left;" vertex="1" parent="sOBfull25ev7dmkhhFgI-57">
          <mxGeometry x="10" y="310" width="330" height="120" as="geometry" />
        </mxCell>
        <mxCell id="sOBfull25ev7dmkhhFgI-173" value="dev-us-west-2.tfvars" style="text;strokeColor=none;fillColor=none;align=left;verticalAlign=middle;spacingLeft=4;spacingRight=4;overflow=hidden;points=[[0,0.5],[1,0.5]];portConstraint=eastwest;rotatable=0;whiteSpace=wrap;html=1;" vertex="1" parent="sOBfull25ev7dmkhhFgI-172">
          <mxGeometry y="30" width="330" height="30" as="geometry" />
        </mxCell>
        <mxCell id="sOBfull25ev7dmkhhFgI-174" value="qa-us-west-2.tfvars" style="text;strokeColor=none;fillColor=none;align=left;verticalAlign=middle;spacingLeft=4;spacingRight=4;overflow=hidden;points=[[0,0.5],[1,0.5]];portConstraint=eastwest;rotatable=0;whiteSpace=wrap;html=1;" vertex="1" parent="sOBfull25ev7dmkhhFgI-172">
          <mxGeometry y="60" width="330" height="30" as="geometry" />
        </mxCell>
        <mxCell id="sOBfull25ev7dmkhhFgI-175" value="prod-us-west-2.tfvars" style="text;strokeColor=none;fillColor=none;align=left;verticalAlign=middle;spacingLeft=4;spacingRight=4;overflow=hidden;points=[[0,0.5],[1,0.5]];portConstraint=eastwest;rotatable=0;whiteSpace=wrap;html=1;" vertex="1" parent="sOBfull25ev7dmkhhFgI-172">
          <mxGeometry y="90" width="330" height="30" as="geometry" />
        </mxCell>
        <mxCell id="sOBfull25ev7dmkhhFgI-176" value="Terraform Configuration (tf files)" style="swimlane;align=left;" vertex="1" parent="sOBfull25ev7dmkhhFgI-57">
          <mxGeometry x="10" y="30" width="330" height="260" as="geometry" />
        </mxCell>
        <mxCell id="sOBfull25ev7dmkhhFgI-194" value="S3" style="sketch=0;points=[[0,0,0],[0.25,0,0],[0.5,0,0],[0.75,0,0],[1,0,0],[0,1,0],[0.25,1,0],[0.5,1,0],[0.75,1,0],[1,1,0],[0,0.25,0],[0,0.5,0],[0,0.75,0],[1,0.25,0],[1,0.5,0],[1,0.75,0]];outlineConnect=0;fontColor=#232F3E;fillColor=#7AA116;strokeColor=#ffffff;dashed=0;verticalLabelPosition=bottom;verticalAlign=top;align=center;html=1;fontSize=12;fontStyle=0;aspect=fixed;shape=mxgraph.aws4.resourceIcon;resIcon=mxgraph.aws4.s3;" vertex="1" parent="sOBfull25ev7dmkhhFgI-176">
          <mxGeometry x="28.5" y="50" width="78" height="78" as="geometry" />
        </mxCell>
        <mxCell id="sOBfull25ev7dmkhhFgI-201" value="cloudfront" style="sketch=0;points=[[0,0,0],[0.25,0,0],[0.5,0,0],[0.75,0,0],[1,0,0],[0,1,0],[0.25,1,0],[0.5,1,0],[0.75,1,0],[1,1,0],[0,0.25,0],[0,0.5,0],[0,0.75,0],[1,0.25,0],[1,0.5,0],[1,0.75,0]];outlineConnect=0;fontColor=#232F3E;fillColor=#8C4FFF;strokeColor=#ffffff;dashed=0;verticalLabelPosition=bottom;verticalAlign=top;align=center;html=1;fontSize=12;fontStyle=0;aspect=fixed;shape=mxgraph.aws4.resourceIcon;resIcon=mxgraph.aws4.cloudfront;" vertex="1" parent="sOBfull25ev7dmkhhFgI-176">
          <mxGeometry x="140" y="50" width="78" height="78" as="geometry" />
        </mxCell>
        <mxCell id="sOBfull25ev7dmkhhFgI-76" value="Data Sources" style="shape=image;imageAspect=0;aspect=fixed;verticalLabelPosition=bottom;verticalAlign=top;image=https://azapi-vscode.gallerycdn.vsassets.io/extensions/azapi-vscode/azapi/2.3.0/1741328541367/Microsoft.VisualStudio.Services.Icons.Default;" vertex="1" parent="1">
          <mxGeometry x="-30" y="590" width="40" height="40" as="geometry" />
        </mxCell>
        <mxCell id="sOBfull25ev7dmkhhFgI-78" value="Data Sources" style="shape=image;imageAspect=0;aspect=fixed;verticalLabelPosition=bottom;verticalAlign=top;image=https://azapi-vscode.gallerycdn.vsassets.io/extensions/azapi-vscode/azapi/2.3.0/1741328541367/Microsoft.VisualStudio.Services.Icons.Default;" vertex="1" parent="1">
          <mxGeometry x="880" y="590" width="40" height="40" as="geometry" />
        </mxCell>
        <mxCell id="sOBfull25ev7dmkhhFgI-79" value="Data Sources" style="shape=image;imageAspect=0;aspect=fixed;verticalLabelPosition=bottom;verticalAlign=top;image=https://azapi-vscode.gallerycdn.vsassets.io/extensions/azapi-vscode/azapi/2.3.0/1741328541367/Microsoft.VisualStudio.Services.Icons.Default;" vertex="1" parent="1">
          <mxGeometry x="470" y="590" width="40" height="40" as="geometry" />
        </mxCell>
        <mxCell id="sOBfull25ev7dmkhhFgI-90" value="Pros" style="swimlane;whiteSpace=wrap;html=1;" vertex="1" parent="1">
          <mxGeometry x="690" y="120" width="280" height="270" as="geometry" />
        </mxCell>
        <mxCell id="sOBfull25ev7dmkhhFgI-92" value="Supports different release schedule for each project" style="text;html=1;align=left;verticalAlign=middle;whiteSpace=wrap;rounded=0;" vertex="1" parent="sOBfull25ev7dmkhhFgI-90">
          <mxGeometry x="40" y="30" width="220" height="30" as="geometry" />
        </mxCell>
        <mxCell id="sOBfull25ev7dmkhhFgI-95" value="" style="sketch=0;html=1;aspect=fixed;strokeColor=none;shadow=0;align=center;fillColor=#2D9C5E;verticalAlign=top;labelPosition=center;verticalLabelPosition=bottom;shape=mxgraph.gcp2.check" vertex="1" parent="sOBfull25ev7dmkhhFgI-90">
          <mxGeometry x="15" y="35" width="25" height="20" as="geometry" />
        </mxCell>
        <mxCell id="sOBfull25ev7dmkhhFgI-101" value="Isolation of different projects / teams (easier scaling)" style="text;html=1;align=left;verticalAlign=middle;whiteSpace=wrap;rounded=0;" vertex="1" parent="sOBfull25ev7dmkhhFgI-90">
          <mxGeometry x="40" y="70" width="220" height="30" as="geometry" />
        </mxCell>
        <mxCell id="sOBfull25ev7dmkhhFgI-102" value="" style="sketch=0;html=1;aspect=fixed;strokeColor=none;shadow=0;align=center;fillColor=#2D9C5E;verticalAlign=top;labelPosition=center;verticalLabelPosition=bottom;shape=mxgraph.gcp2.check" vertex="1" parent="sOBfull25ev7dmkhhFgI-90">
          <mxGeometry x="15" y="75" width="25" height="20" as="geometry" />
        </mxCell>
        <mxCell id="sOBfull25ev7dmkhhFgI-103" value="Common golden modules for all teams" style="text;html=1;align=left;verticalAlign=middle;whiteSpace=wrap;rounded=0;" vertex="1" parent="sOBfull25ev7dmkhhFgI-90">
          <mxGeometry x="40" y="110" width="220" height="30" as="geometry" />
        </mxCell>
        <mxCell id="sOBfull25ev7dmkhhFgI-104" value="" style="sketch=0;html=1;aspect=fixed;strokeColor=none;shadow=0;align=center;fillColor=#2D9C5E;verticalAlign=top;labelPosition=center;verticalLabelPosition=bottom;shape=mxgraph.gcp2.check" vertex="1" parent="sOBfull25ev7dmkhhFgI-90">
          <mxGeometry x="15" y="115" width="25" height="20" as="geometry" />
        </mxCell>
        <mxCell id="sOBfull25ev7dmkhhFgI-105" value="Project teams could self service" style="text;html=1;align=left;verticalAlign=middle;whiteSpace=wrap;rounded=0;" vertex="1" parent="sOBfull25ev7dmkhhFgI-90">
          <mxGeometry x="50" y="190" width="220" height="30" as="geometry" />
        </mxCell>
        <mxCell id="sOBfull25ev7dmkhhFgI-106" value="" style="sketch=0;html=1;aspect=fixed;strokeColor=none;shadow=0;align=center;fillColor=#2D9C5E;verticalAlign=top;labelPosition=center;verticalLabelPosition=bottom;shape=mxgraph.gcp2.check" vertex="1" parent="sOBfull25ev7dmkhhFgI-90">
          <mxGeometry x="15" y="155" width="25" height="20" as="geometry" />
        </mxCell>
        <mxCell id="sOBfull25ev7dmkhhFgI-122" value="" style="sketch=0;html=1;aspect=fixed;strokeColor=none;shadow=0;align=center;fillColor=#2D9C5E;verticalAlign=top;labelPosition=center;verticalLabelPosition=bottom;shape=mxgraph.gcp2.check" vertex="1" parent="sOBfull25ev7dmkhhFgI-90">
          <mxGeometry x="15" y="195" width="25" height="20" as="geometry" />
        </mxCell>
        <mxCell id="sOBfull25ev7dmkhhFgI-133" value="Terraform plan/apply run faster" style="text;html=1;align=left;verticalAlign=middle;whiteSpace=wrap;rounded=0;" vertex="1" parent="sOBfull25ev7dmkhhFgI-90">
          <mxGeometry x="50" y="230" width="220" height="30" as="geometry" />
        </mxCell>
        <mxCell id="sOBfull25ev7dmkhhFgI-134" value="" style="sketch=0;html=1;aspect=fixed;strokeColor=none;shadow=0;align=center;fillColor=#2D9C5E;verticalAlign=top;labelPosition=center;verticalLabelPosition=bottom;shape=mxgraph.gcp2.check" vertex="1" parent="sOBfull25ev7dmkhhFgI-90">
          <mxGeometry x="15" y="235" width="25" height="20" as="geometry" />
        </mxCell>
        <mxCell id="sOBfull25ev7dmkhhFgI-123" value="Easier to create&amp;nbsp; / destroy infra for each project" style="text;html=1;align=left;verticalAlign=middle;whiteSpace=wrap;rounded=0;" vertex="1" parent="1">
          <mxGeometry x="740" y="280" width="220" height="30" as="geometry" />
        </mxCell>
        <mxCell id="sOBfull25ev7dmkhhFgI-124" value="Cons" style="swimlane;whiteSpace=wrap;html=1;" vertex="1" parent="1">
          <mxGeometry x="690" y="400" width="280" height="150" as="geometry" />
        </mxCell>
        <mxCell id="sOBfull25ev7dmkhhFgI-125" value="More terraform state files" style="text;html=1;align=left;verticalAlign=middle;whiteSpace=wrap;rounded=0;" vertex="1" parent="sOBfull25ev7dmkhhFgI-124">
          <mxGeometry x="40" y="30" width="220" height="30" as="geometry" />
        </mxCell>
        <mxCell id="sOBfull25ev7dmkhhFgI-126" value="Difficult to upgrade all projects to a new golden module" style="text;html=1;align=left;verticalAlign=middle;whiteSpace=wrap;rounded=0;" vertex="1" parent="sOBfull25ev7dmkhhFgI-124">
          <mxGeometry x="40" y="70" width="220" height="30" as="geometry" />
        </mxCell>
        <mxCell id="sOBfull25ev7dmkhhFgI-127" value="Adds additional gitlab projects" style="text;html=1;align=left;verticalAlign=middle;whiteSpace=wrap;rounded=0;" vertex="1" parent="sOBfull25ev7dmkhhFgI-124">
          <mxGeometry x="40" y="110" width="220" height="30" as="geometry" />
        </mxCell>
        <mxCell id="sOBfull25ev7dmkhhFgI-129" value="" style="shape=mxgraph.mockup.markup.redX;fillColor=#ff0000;html=1;shadow=0;whiteSpace=wrap;strokeColor=none;" vertex="1" parent="sOBfull25ev7dmkhhFgI-124">
          <mxGeometry x="10" y="32.5" width="20" height="25" as="geometry" />
        </mxCell>
        <mxCell id="sOBfull25ev7dmkhhFgI-130" value="" style="shape=mxgraph.mockup.markup.redX;fillColor=#ff0000;html=1;shadow=0;whiteSpace=wrap;strokeColor=none;" vertex="1" parent="sOBfull25ev7dmkhhFgI-124">
          <mxGeometry x="10" y="72.5" width="20" height="25" as="geometry" />
        </mxCell>
        <mxCell id="sOBfull25ev7dmkhhFgI-131" value="" style="shape=mxgraph.mockup.markup.redX;fillColor=#ff0000;html=1;shadow=0;whiteSpace=wrap;strokeColor=none;" vertex="1" parent="sOBfull25ev7dmkhhFgI-124">
          <mxGeometry x="10" y="112.5" width="20" height="25" as="geometry" />
        </mxCell>
        <mxCell id="sOBfull25ev7dmkhhFgI-136" value="" style="shape=image;html=1;verticalAlign=top;verticalLabelPosition=bottom;labelBackgroundColor=#ffffff;imageAspect=0;aspect=fixed;image=https://cdn0.iconfinder.com/data/icons/phosphor-regular-vol-3/256/gitlab-logo-128.png" vertex="1" parent="1">
          <mxGeometry x="-210" y="690" width="30" height="30" as="geometry" />
        </mxCell>
        <mxCell id="sOBfull25ev7dmkhhFgI-137" value="spc-terraform" style="text;html=1;align=center;verticalAlign=middle;whiteSpace=wrap;rounded=0;" vertex="1" parent="1">
          <mxGeometry x="-190" y="690" width="95" height="30" as="geometry" />
        </mxCell>
        <mxCell id="sOBfull25ev7dmkhhFgI-139" value="" style="shape=image;html=1;verticalAlign=top;verticalLabelPosition=bottom;labelBackgroundColor=#ffffff;imageAspect=0;aspect=fixed;image=https://cdn0.iconfinder.com/data/icons/phosphor-regular-vol-3/256/gitlab-logo-128.png" vertex="1" parent="1">
          <mxGeometry x="270" y="690" width="30" height="30" as="geometry" />
        </mxCell>
        <mxCell id="sOBfull25ev7dmkhhFgI-140" value="sonicbot-terraform" style="text;html=1;align=center;verticalAlign=middle;whiteSpace=wrap;rounded=0;" vertex="1" parent="1">
          <mxGeometry x="290" y="690" width="120" height="30" as="geometry" />
        </mxCell>
        <mxCell id="sOBfull25ev7dmkhhFgI-141" value="" style="shape=image;html=1;verticalAlign=top;verticalLabelPosition=bottom;labelBackgroundColor=#ffffff;imageAspect=0;aspect=fixed;image=https://cdn0.iconfinder.com/data/icons/phosphor-regular-vol-3/256/gitlab-logo-128.png" vertex="1" parent="1">
          <mxGeometry x="740" y="690" width="30" height="30" as="geometry" />
        </mxCell>
        <mxCell id="sOBfull25ev7dmkhhFgI-142" value="sma-terraform" style="text;html=1;align=center;verticalAlign=middle;whiteSpace=wrap;rounded=0;" vertex="1" parent="1">
          <mxGeometry x="760" y="690" width="95" height="30" as="geometry" />
        </mxCell>
        <mxCell id="sOBfull25ev7dmkhhFgI-143" value="" style="shape=image;html=1;verticalAlign=top;verticalLabelPosition=bottom;labelBackgroundColor=#ffffff;imageAspect=0;aspect=fixed;image=https://cdn0.iconfinder.com/data/icons/phosphor-regular-vol-3/256/gitlab-logo-128.png" vertex="1" parent="1">
          <mxGeometry x="270" y="80" width="30" height="30" as="geometry" />
        </mxCell>
        <mxCell id="sOBfull25ev7dmkhhFgI-144" value="ssp-terraform" style="text;html=1;align=center;verticalAlign=middle;whiteSpace=wrap;rounded=0;" vertex="1" parent="1">
          <mxGeometry x="290" y="80" width="95" height="30" as="geometry" />
        </mxCell>
      </root>
    </mxGraphModel>
  </diagram>
  <diagram id="Vp4Qg8J3ln0Zchzk2TVi" name="Port Self Service Actions">
    <mxGraphModel dx="1639" dy="1138" grid="1" gridSize="10" guides="1" tooltips="1" connect="1" arrows="1" fold="1" page="1" pageScale="1" pageWidth="850" pageHeight="1100" math="0" shadow="0">
      <root>
        <mxCell id="0" />
        <object label="Base" id="1">
          <mxCell style="" parent="0" />
        </object>
        <mxCell id="pAiZT0ztTUFN5CNCpKfk-1" value="Preprocess Port Action &lt;br&gt;Payload Step Function" style="sketch=0;points=[[0,0,0],[0.25,0,0],[0.5,0,0],[0.75,0,0],[1,0,0],[0,1,0],[0.25,1,0],[0.5,1,0],[0.75,1,0],[1,1,0],[0,0.25,0],[0,0.5,0],[0,0.75,0],[1,0.25,0],[1,0.5,0],[1,0.75,0]];outlineConnect=0;fontColor=#232F3E;fillColor=#E7157B;strokeColor=#ffffff;dashed=0;verticalLabelPosition=bottom;verticalAlign=top;align=center;html=1;fontSize=12;fontStyle=0;aspect=fixed;shape=mxgraph.aws4.resourceIcon;resIcon=mxgraph.aws4.step_functions;" parent="1" vertex="1">
          <mxGeometry x="580" y="350" width="78" height="78" as="geometry" />
        </mxCell>
        <mxCell id="LajamOLVWnlA8zwAaqZa-5" value="" style="edgeStyle=orthogonalEdgeStyle;rounded=0;orthogonalLoop=1;jettySize=auto;html=1;" parent="1" source="LajamOLVWnlA8zwAaqZa-1" target="LajamOLVWnlA8zwAaqZa-2" edge="1">
          <mxGeometry relative="1" as="geometry" />
        </mxCell>
        <mxCell id="LajamOLVWnlA8zwAaqZa-6" value="" style="edgeStyle=orthogonalEdgeStyle;rounded=0;orthogonalLoop=1;jettySize=auto;html=1;" parent="1" source="LajamOLVWnlA8zwAaqZa-1" target="LajamOLVWnlA8zwAaqZa-2" edge="1">
          <mxGeometry relative="1" as="geometry" />
        </mxCell>
        <mxCell id="LajamOLVWnlA8zwAaqZa-1" value="" style="shape=image;imageAspect=0;aspect=fixed;verticalLabelPosition=bottom;verticalAlign=top;image=https://docs.port.io/img/logos/logo-light.svg;" parent="1" vertex="1">
          <mxGeometry x="364" y="80" width="121.64" height="40" as="geometry" />
        </mxCell>
        <mxCell id="LajamOLVWnlA8zwAaqZa-2" value="" style="points=[];aspect=fixed;html=1;align=center;shadow=0;dashed=0;fillColor=#FF6A00;strokeColor=none;shape=mxgraph.alibaba_cloud.kafka;" parent="1" vertex="1">
          <mxGeometry x="396.47" y="210" width="56.699999999999996" height="42" as="geometry" />
        </mxCell>
        <mxCell id="LajamOLVWnlA8zwAaqZa-3" value="Port Kafka Run Topic" style="text;html=1;align=center;verticalAlign=middle;resizable=0;points=[];autosize=1;strokeColor=none;fillColor=none;" parent="1" vertex="1">
          <mxGeometry x="355" y="252" width="140" height="30" as="geometry" />
        </mxCell>
        <mxCell id="LajamOLVWnlA8zwAaqZa-4" style="edgeStyle=orthogonalEdgeStyle;rounded=0;orthogonalLoop=1;jettySize=auto;html=1;entryX=0.5;entryY=0;entryDx=0;entryDy=0;entryPerimeter=0;" parent="1" source="LajamOLVWnlA8zwAaqZa-1" target="LajamOLVWnlA8zwAaqZa-2" edge="1">
          <mxGeometry relative="1" as="geometry" />
        </mxCell>
        <mxCell id="LajamOLVWnlA8zwAaqZa-8" style="edgeStyle=orthogonalEdgeStyle;rounded=0;orthogonalLoop=1;jettySize=auto;html=1;entryX=0;entryY=0.5;entryDx=0;entryDy=0;entryPerimeter=0;startArrow=classicThin;startFill=1;" parent="1" target="pAiZT0ztTUFN5CNCpKfk-1" edge="1">
          <mxGeometry relative="1" as="geometry">
            <mxPoint x="464" y="389" as="sourcePoint" />
          </mxGeometry>
        </mxCell>
        <mxCell id="LajamOLVWnlA8zwAaqZa-9" style="edgeStyle=orthogonalEdgeStyle;rounded=0;orthogonalLoop=1;jettySize=auto;html=1;entryX=0.5;entryY=0;entryDx=0;entryDy=0;entryPerimeter=0;" parent="1" source="LajamOLVWnlA8zwAaqZa-3" edge="1">
          <mxGeometry relative="1" as="geometry">
            <mxPoint x="425" y="350" as="targetPoint" />
          </mxGeometry>
        </mxCell>
        <mxCell id="LajamOLVWnlA8zwAaqZa-10" value="SSP Controlplane Account" style="points=[[0,0],[0.25,0],[0.5,0],[0.75,0],[1,0],[1,0.25],[1,0.5],[1,0.75],[1,1],[0.75,1],[0.5,1],[0.25,1],[0,1],[0,0.75],[0,0.5],[0,0.25]];outlineConnect=0;gradientColor=none;html=1;whiteSpace=wrap;fontSize=12;fontStyle=0;container=1;pointerEvents=0;collapsible=0;recursiveResize=0;shape=mxgraph.aws4.group;grIcon=mxgraph.aws4.group_account;strokeColor=#CD2264;fillColor=none;verticalAlign=top;align=left;spacingLeft=30;fontColor=#CD2264;dashed=0;" parent="1" vertex="1">
          <mxGeometry x="120" y="330" width="650" height="1110" as="geometry" />
        </mxCell>
        <mxCell id="LajamOLVWnlA8zwAaqZa-18" style="edgeStyle=orthogonalEdgeStyle;rounded=0;orthogonalLoop=1;jettySize=auto;html=1;exitX=0.5;exitY=1;exitDx=0;exitDy=0;exitPerimeter=0;" parent="LajamOLVWnlA8zwAaqZa-10" source="LajamOLVWnlA8zwAaqZa-11" target="LajamOLVWnlA8zwAaqZa-15" edge="1">
          <mxGeometry relative="1" as="geometry" />
        </mxCell>
        <mxCell id="LajamOLVWnlA8zwAaqZa-22" value="Event Rule Matching" style="edgeLabel;html=1;align=center;verticalAlign=middle;resizable=0;points=[];" parent="LajamOLVWnlA8zwAaqZa-18" vertex="1" connectable="0">
          <mxGeometry x="0.1119" y="-3" relative="1" as="geometry">
            <mxPoint as="offset" />
          </mxGeometry>
        </mxCell>
        <mxCell id="LajamOLVWnlA8zwAaqZa-19" style="edgeStyle=orthogonalEdgeStyle;rounded=0;orthogonalLoop=1;jettySize=auto;html=1;exitX=0.5;exitY=1;exitDx=0;exitDy=0;exitPerimeter=0;" parent="LajamOLVWnlA8zwAaqZa-10" source="LajamOLVWnlA8zwAaqZa-11" target="LajamOLVWnlA8zwAaqZa-17" edge="1">
          <mxGeometry relative="1" as="geometry" />
        </mxCell>
        <mxCell id="LajamOLVWnlA8zwAaqZa-21" value="Event Rule Matching" style="edgeLabel;html=1;align=center;verticalAlign=middle;resizable=0;points=[];" parent="LajamOLVWnlA8zwAaqZa-19" vertex="1" connectable="0">
          <mxGeometry x="-0.0934" y="-4" relative="1" as="geometry">
            <mxPoint as="offset" />
          </mxGeometry>
        </mxCell>
        <mxCell id="LajamOLVWnlA8zwAaqZa-20" style="edgeStyle=orthogonalEdgeStyle;rounded=0;orthogonalLoop=1;jettySize=auto;html=1;" parent="LajamOLVWnlA8zwAaqZa-10" source="LajamOLVWnlA8zwAaqZa-11" target="LajamOLVWnlA8zwAaqZa-16" edge="1">
          <mxGeometry relative="1" as="geometry" />
        </mxCell>
        <mxCell id="LajamOLVWnlA8zwAaqZa-11" value="EventBridge Default Bus" style="sketch=0;points=[[0,0,0],[0.25,0,0],[0.5,0,0],[0.75,0,0],[1,0,0],[0,1,0],[0.25,1,0],[0.5,1,0],[0.75,1,0],[1,1,0],[0,0.25,0],[0,0.5,0],[0,0.75,0],[1,0.25,0],[1,0.5,0],[1,0.75,0]];outlineConnect=0;fontColor=#232F3E;fillColor=#E7157B;strokeColor=#ffffff;dashed=0;verticalLabelPosition=bottom;verticalAlign=top;align=center;html=1;fontSize=12;fontStyle=0;aspect=fixed;shape=mxgraph.aws4.resourceIcon;resIcon=mxgraph.aws4.eventbridge;" parent="LajamOLVWnlA8zwAaqZa-10" vertex="1">
          <mxGeometry x="266" y="180" width="78" height="78" as="geometry" />
        </mxCell>
        <mxCell id="LajamOLVWnlA8zwAaqZa-13" value="AWS Event Pipes" style="sketch=0;outlineConnect=0;fontColor=#232F3E;gradientColor=none;fillColor=#E7157B;strokeColor=none;dashed=0;verticalLabelPosition=bottom;verticalAlign=top;align=center;html=1;fontSize=12;fontStyle=0;aspect=fixed;pointerEvents=1;shape=mxgraph.aws4.eventbridge_pipes;" parent="LajamOLVWnlA8zwAaqZa-10" vertex="1">
          <mxGeometry x="266" y="30" width="78" height="78" as="geometry" />
        </mxCell>
        <mxCell id="LajamOLVWnlA8zwAaqZa-14" style="edgeStyle=orthogonalEdgeStyle;rounded=0;orthogonalLoop=1;jettySize=auto;html=1;entryX=0.5;entryY=0;entryDx=0;entryDy=0;entryPerimeter=0;" parent="LajamOLVWnlA8zwAaqZa-10" source="LajamOLVWnlA8zwAaqZa-13" target="LajamOLVWnlA8zwAaqZa-11" edge="1">
          <mxGeometry relative="1" as="geometry" />
        </mxCell>
        <mxCell id="LajamOLVWnlA8zwAaqZa-15" value="create_secret action name" style="sketch=0;outlineConnect=0;fontColor=#232F3E;gradientColor=none;fillColor=#E7157B;strokeColor=none;dashed=0;verticalLabelPosition=bottom;verticalAlign=top;align=center;html=1;fontSize=12;fontStyle=0;aspect=fixed;pointerEvents=1;shape=mxgraph.aws4.event;" parent="LajamOLVWnlA8zwAaqZa-10" vertex="1">
          <mxGeometry x="80" y="363.8" width="60" height="60" as="geometry" />
        </mxCell>
        <mxCell id="LajamOLVWnlA8zwAaqZa-16" value="delete_s3_bucket action name" style="sketch=0;outlineConnect=0;fontColor=#232F3E;gradientColor=none;fillColor=#E7157B;strokeColor=none;dashed=0;verticalLabelPosition=bottom;verticalAlign=top;align=center;html=1;fontSize=12;fontStyle=0;aspect=fixed;pointerEvents=1;shape=mxgraph.aws4.event;" parent="LajamOLVWnlA8zwAaqZa-10" vertex="1">
          <mxGeometry x="275" y="363.8" width="60" height="60" as="geometry" />
        </mxCell>
        <mxCell id="LajamOLVWnlA8zwAaqZa-17" value="update_secret action name" style="sketch=0;outlineConnect=0;fontColor=#232F3E;gradientColor=none;fillColor=#E7157B;strokeColor=none;dashed=0;verticalLabelPosition=bottom;verticalAlign=top;align=center;html=1;fontSize=12;fontStyle=0;aspect=fixed;pointerEvents=1;shape=mxgraph.aws4.event;" parent="LajamOLVWnlA8zwAaqZa-10" vertex="1">
          <mxGeometry x="460" y="363.8" width="60" height="60" as="geometry" />
        </mxCell>
        <mxCell id="LajamOLVWnlA8zwAaqZa-23" value="Create Secret Stepfn" style="sketch=0;points=[[0,0,0],[0.25,0,0],[0.5,0,0],[0.75,0,0],[1,0,0],[0,1,0],[0.25,1,0],[0.5,1,0],[0.75,1,0],[1,1,0],[0,0.25,0],[0,0.5,0],[0,0.75,0],[1,0.25,0],[1,0.5,0],[1,0.75,0]];outlineConnect=0;fontColor=#232F3E;fillColor=#E7157B;strokeColor=#ffffff;dashed=0;verticalLabelPosition=bottom;verticalAlign=top;align=center;html=1;fontSize=12;fontStyle=0;aspect=fixed;shape=mxgraph.aws4.resourceIcon;resIcon=mxgraph.aws4.step_functions;" parent="LajamOLVWnlA8zwAaqZa-10" vertex="1">
          <mxGeometry x="71" y="513.8" width="78" height="78" as="geometry" />
        </mxCell>
        <mxCell id="LajamOLVWnlA8zwAaqZa-24" value="Delete S3 Bucket Stepfn" style="sketch=0;points=[[0,0,0],[0.25,0,0],[0.5,0,0],[0.75,0,0],[1,0,0],[0,1,0],[0.25,1,0],[0.5,1,0],[0.75,1,0],[1,1,0],[0,0.25,0],[0,0.5,0],[0,0.75,0],[1,0.25,0],[1,0.5,0],[1,0.75,0]];outlineConnect=0;fontColor=#232F3E;fillColor=#E7157B;strokeColor=#ffffff;dashed=0;verticalLabelPosition=bottom;verticalAlign=top;align=center;html=1;fontSize=12;fontStyle=0;aspect=fixed;shape=mxgraph.aws4.resourceIcon;resIcon=mxgraph.aws4.step_functions;" parent="LajamOLVWnlA8zwAaqZa-10" vertex="1">
          <mxGeometry x="266" y="513.8" width="78" height="78" as="geometry" />
        </mxCell>
        <mxCell id="LajamOLVWnlA8zwAaqZa-25" value="Update Secret Stepfn" style="sketch=0;points=[[0,0,0],[0.25,0,0],[0.5,0,0],[0.75,0,0],[1,0,0],[0,1,0],[0.25,1,0],[0.5,1,0],[0.75,1,0],[1,1,0],[0,0.25,0],[0,0.5,0],[0,0.75,0],[1,0.25,0],[1,0.5,0],[1,0.75,0]];outlineConnect=0;fontColor=#232F3E;fillColor=#E7157B;strokeColor=#ffffff;dashed=0;verticalLabelPosition=bottom;verticalAlign=top;align=center;html=1;fontSize=12;fontStyle=0;aspect=fixed;shape=mxgraph.aws4.resourceIcon;resIcon=mxgraph.aws4.step_functions;" parent="LajamOLVWnlA8zwAaqZa-10" vertex="1">
          <mxGeometry x="451" y="510" width="78" height="78" as="geometry" />
        </mxCell>
        <mxCell id="LajamOLVWnlA8zwAaqZa-26" style="edgeStyle=orthogonalEdgeStyle;rounded=0;orthogonalLoop=1;jettySize=auto;html=1;entryX=0.5;entryY=0;entryDx=0;entryDy=0;entryPerimeter=0;" parent="LajamOLVWnlA8zwAaqZa-10" source="LajamOLVWnlA8zwAaqZa-15" target="LajamOLVWnlA8zwAaqZa-23" edge="1">
          <mxGeometry relative="1" as="geometry" />
        </mxCell>
        <mxCell id="LajamOLVWnlA8zwAaqZa-27" style="edgeStyle=orthogonalEdgeStyle;rounded=0;orthogonalLoop=1;jettySize=auto;html=1;entryX=0.5;entryY=0;entryDx=0;entryDy=0;entryPerimeter=0;" parent="LajamOLVWnlA8zwAaqZa-10" source="LajamOLVWnlA8zwAaqZa-16" target="LajamOLVWnlA8zwAaqZa-24" edge="1">
          <mxGeometry relative="1" as="geometry" />
        </mxCell>
        <mxCell id="LajamOLVWnlA8zwAaqZa-28" style="edgeStyle=orthogonalEdgeStyle;rounded=0;orthogonalLoop=1;jettySize=auto;html=1;entryX=0.5;entryY=0;entryDx=0;entryDy=0;entryPerimeter=0;" parent="LajamOLVWnlA8zwAaqZa-10" source="LajamOLVWnlA8zwAaqZa-17" edge="1">
          <mxGeometry relative="1" as="geometry">
            <mxPoint x="490" y="513.8" as="targetPoint" />
          </mxGeometry>
        </mxCell>
        <mxCell id="LajamOLVWnlA8zwAaqZa-40" style="edgeStyle=orthogonalEdgeStyle;rounded=0;orthogonalLoop=1;jettySize=auto;html=1;" parent="LajamOLVWnlA8zwAaqZa-10" source="LajamOLVWnlA8zwAaqZa-29" target="LajamOLVWnlA8zwAaqZa-39" edge="1">
          <mxGeometry relative="1" as="geometry" />
        </mxCell>
        <mxCell id="LajamOLVWnlA8zwAaqZa-29" value="EventBridge Default Bus" style="sketch=0;points=[[0,0,0],[0.25,0,0],[0.5,0,0],[0.75,0,0],[1,0,0],[0,1,0],[0.25,1,0],[0.5,1,0],[0.75,1,0],[1,1,0],[0,0.25,0],[0,0.5,0],[0,0.75,0],[1,0.25,0],[1,0.5,0],[1,0.75,0]];outlineConnect=0;fontColor=#232F3E;fillColor=#E7157B;strokeColor=#ffffff;dashed=0;verticalLabelPosition=bottom;verticalAlign=top;align=center;html=1;fontSize=12;fontStyle=0;aspect=fixed;shape=mxgraph.aws4.resourceIcon;resIcon=mxgraph.aws4.eventbridge;" parent="LajamOLVWnlA8zwAaqZa-10" vertex="1">
          <mxGeometry x="266" y="693.8" width="78" height="78" as="geometry" />
        </mxCell>
        <mxCell id="LajamOLVWnlA8zwAaqZa-30" style="edgeStyle=orthogonalEdgeStyle;rounded=0;orthogonalLoop=1;jettySize=auto;html=1;entryX=0;entryY=0.5;entryDx=0;entryDy=0;entryPerimeter=0;exitX=0.5;exitY=1;exitDx=0;exitDy=0;exitPerimeter=0;" parent="LajamOLVWnlA8zwAaqZa-10" source="LajamOLVWnlA8zwAaqZa-23" target="LajamOLVWnlA8zwAaqZa-29" edge="1">
          <mxGeometry relative="1" as="geometry" />
        </mxCell>
        <mxCell id="LajamOLVWnlA8zwAaqZa-33" value="Success/Fail" style="edgeLabel;html=1;align=center;verticalAlign=middle;resizable=0;points=[];" parent="LajamOLVWnlA8zwAaqZa-30" vertex="1" connectable="0">
          <mxGeometry x="0.3199" y="-1" relative="1" as="geometry">
            <mxPoint as="offset" />
          </mxGeometry>
        </mxCell>
        <mxCell id="LajamOLVWnlA8zwAaqZa-31" style="edgeStyle=orthogonalEdgeStyle;rounded=0;orthogonalLoop=1;jettySize=auto;html=1;entryX=0.5;entryY=0;entryDx=0;entryDy=0;entryPerimeter=0;" parent="LajamOLVWnlA8zwAaqZa-10" source="LajamOLVWnlA8zwAaqZa-24" target="LajamOLVWnlA8zwAaqZa-29" edge="1">
          <mxGeometry relative="1" as="geometry" />
        </mxCell>
        <mxCell id="LajamOLVWnlA8zwAaqZa-32" style="edgeStyle=orthogonalEdgeStyle;rounded=0;orthogonalLoop=1;jettySize=auto;html=1;entryX=1;entryY=0.5;entryDx=0;entryDy=0;entryPerimeter=0;exitX=0.5;exitY=1;exitDx=0;exitDy=0;exitPerimeter=0;" parent="LajamOLVWnlA8zwAaqZa-10" source="LajamOLVWnlA8zwAaqZa-25" target="LajamOLVWnlA8zwAaqZa-29" edge="1">
          <mxGeometry relative="1" as="geometry">
            <mxPoint x="490" y="591.8" as="sourcePoint" />
          </mxGeometry>
        </mxCell>
        <mxCell id="LajamOLVWnlA8zwAaqZa-34" value="Success/Fail" style="edgeLabel;html=1;align=center;verticalAlign=middle;resizable=0;points=[];" parent="LajamOLVWnlA8zwAaqZa-32" vertex="1" connectable="0">
          <mxGeometry x="0.4146" y="-2" relative="1" as="geometry">
            <mxPoint as="offset" />
          </mxGeometry>
        </mxCell>
        <mxCell id="LajamOLVWnlA8zwAaqZa-39" value="step function succeeded/failed rule" style="sketch=0;outlineConnect=0;fontColor=#232F3E;gradientColor=none;fillColor=#E7157B;strokeColor=none;dashed=0;verticalLabelPosition=bottom;verticalAlign=top;align=center;html=1;fontSize=12;fontStyle=0;aspect=fixed;pointerEvents=1;shape=mxgraph.aws4.event;" parent="LajamOLVWnlA8zwAaqZa-10" vertex="1">
          <mxGeometry x="275" y="840" width="60" height="60" as="geometry" />
        </mxCell>
        <mxCell id="bEKMuU_0UAxug-UBrcEZ-7" value="" style="edgeStyle=orthogonalEdgeStyle;rounded=0;orthogonalLoop=1;jettySize=auto;html=1;" parent="LajamOLVWnlA8zwAaqZa-10" edge="1">
          <mxGeometry relative="1" as="geometry">
            <mxPoint x="582" y="467" as="sourcePoint" />
          </mxGeometry>
        </mxCell>
        <mxCell id="LajamOLVWnlA8zwAaqZa-43" style="edgeStyle=orthogonalEdgeStyle;rounded=0;orthogonalLoop=1;jettySize=auto;html=1;entryX=0.5;entryY=0;entryDx=0;entryDy=0;" parent="1" source="LajamOLVWnlA8zwAaqZa-36" target="LajamOLVWnlA8zwAaqZa-42" edge="1">
          <mxGeometry relative="1" as="geometry" />
        </mxCell>
        <mxCell id="LajamOLVWnlA8zwAaqZa-36" value="Update Port Run Status Succeed/Fail" style="sketch=0;points=[[0,0,0],[0.25,0,0],[0.5,0,0],[0.75,0,0],[1,0,0],[0,1,0],[0.25,1,0],[0.5,1,0],[0.75,1,0],[1,1,0],[0,0.25,0],[0,0.5,0],[0,0.75,0],[1,0.25,0],[1,0.5,0],[1,0.75,0]];outlineConnect=0;fontColor=#232F3E;fillColor=#E7157B;strokeColor=#ffffff;dashed=0;verticalLabelPosition=bottom;verticalAlign=top;align=center;html=1;fontSize=12;fontStyle=0;aspect=fixed;shape=mxgraph.aws4.resourceIcon;resIcon=mxgraph.aws4.step_functions;" parent="1" vertex="1">
          <mxGeometry x="386" y="1300" width="78" height="78" as="geometry" />
        </mxCell>
        <mxCell id="LajamOLVWnlA8zwAaqZa-41" style="edgeStyle=orthogonalEdgeStyle;rounded=0;orthogonalLoop=1;jettySize=auto;html=1;entryX=0.5;entryY=0;entryDx=0;entryDy=0;entryPerimeter=0;" parent="1" source="LajamOLVWnlA8zwAaqZa-39" target="LajamOLVWnlA8zwAaqZa-36" edge="1">
          <mxGeometry relative="1" as="geometry" />
        </mxCell>
        <mxCell id="LajamOLVWnlA8zwAaqZa-42" value="" style="shape=image;imageAspect=0;aspect=fixed;verticalLabelPosition=bottom;verticalAlign=top;image=https://docs.port.io/img/logos/logo-light.svg;" parent="1" vertex="1">
          <mxGeometry x="364" y="1500" width="121.64" height="40" as="geometry" />
        </mxCell>
        <object label="Integrations" id="LajamOLVWnlA8zwAaqZa-44">
          <mxCell parent="0" />
        </object>
        <mxCell id="X8_zKJHgDB3dqM_pHuZj-3" style="edgeStyle=orthogonalEdgeStyle;rounded=0;orthogonalLoop=1;jettySize=auto;html=1;entryX=0;entryY=0.5;entryDx=0;entryDy=0;" parent="LajamOLVWnlA8zwAaqZa-44" source="LajamOLVWnlA8zwAaqZa-46" edge="1">
          <mxGeometry relative="1" as="geometry">
            <mxPoint x="1234" y="505" as="targetPoint" />
            <Array as="points">
              <mxPoint x="1080" y="885" />
              <mxPoint x="1080" y="505" />
            </Array>
          </mxGeometry>
        </mxCell>
        <mxCell id="X8_zKJHgDB3dqM_pHuZj-6" value="Cross account creation" style="edgeLabel;html=1;align=center;verticalAlign=middle;resizable=0;points=[];" parent="X8_zKJHgDB3dqM_pHuZj-3" vertex="1" connectable="0">
          <mxGeometry x="0.7031" y="1" relative="1" as="geometry">
            <mxPoint as="offset" />
          </mxGeometry>
        </mxCell>
        <mxCell id="X8_zKJHgDB3dqM_pHuZj-4" style="edgeStyle=orthogonalEdgeStyle;rounded=0;orthogonalLoop=1;jettySize=auto;html=1;entryX=0;entryY=0.5;entryDx=0;entryDy=0;" parent="LajamOLVWnlA8zwAaqZa-44" source="LajamOLVWnlA8zwAaqZa-46" target="LajamOLVWnlA8zwAaqZa-78" edge="1">
          <mxGeometry relative="1" as="geometry">
            <Array as="points">
              <mxPoint x="1080" y="885" />
              <mxPoint x="1080" y="685" />
            </Array>
          </mxGeometry>
        </mxCell>
        <mxCell id="X8_zKJHgDB3dqM_pHuZj-7" value="cross account rotate" style="edgeLabel;html=1;align=center;verticalAlign=middle;resizable=0;points=[];" parent="X8_zKJHgDB3dqM_pHuZj-4" vertex="1" connectable="0">
          <mxGeometry x="0.5517" y="-1" relative="1" as="geometry">
            <mxPoint as="offset" />
          </mxGeometry>
        </mxCell>
        <mxCell id="X8_zKJHgDB3dqM_pHuZj-5" style="edgeStyle=orthogonalEdgeStyle;rounded=0;orthogonalLoop=1;jettySize=auto;html=1;entryX=0;entryY=0.5;entryDx=0;entryDy=0;" parent="LajamOLVWnlA8zwAaqZa-44" source="LajamOLVWnlA8zwAaqZa-46" target="X8_zKJHgDB3dqM_pHuZj-1" edge="1">
          <mxGeometry relative="1" as="geometry" />
        </mxCell>
        <mxCell id="X8_zKJHgDB3dqM_pHuZj-8" value="Update project" style="edgeLabel;html=1;align=center;verticalAlign=middle;resizable=0;points=[];" parent="X8_zKJHgDB3dqM_pHuZj-5" vertex="1" connectable="0">
          <mxGeometry x="0.1712" y="1" relative="1" as="geometry">
            <mxPoint as="offset" />
          </mxGeometry>
        </mxCell>
        <mxCell id="3j8w4SsJkNTH-5cHEGqh-2" style="edgeStyle=orthogonalEdgeStyle;rounded=0;orthogonalLoop=1;jettySize=auto;html=1;entryX=0;entryY=0.5;entryDx=0;entryDy=0;" parent="LajamOLVWnlA8zwAaqZa-44" source="LajamOLVWnlA8zwAaqZa-46" target="X8_zKJHgDB3dqM_pHuZj-10" edge="1">
          <mxGeometry relative="1" as="geometry">
            <Array as="points">
              <mxPoint x="1080" y="885" />
              <mxPoint x="1080" y="1099" />
            </Array>
          </mxGeometry>
        </mxCell>
        <mxCell id="3j8w4SsJkNTH-5cHEGqh-4" value="Add IP to Allowlist" style="edgeLabel;html=1;align=center;verticalAlign=middle;resizable=0;points=[];" parent="3j8w4SsJkNTH-5cHEGqh-2" vertex="1" connectable="0">
          <mxGeometry x="0.5714" y="1" relative="1" as="geometry">
            <mxPoint as="offset" />
          </mxGeometry>
        </mxCell>
        <mxCell id="3j8w4SsJkNTH-5cHEGqh-3" style="edgeStyle=orthogonalEdgeStyle;rounded=0;orthogonalLoop=1;jettySize=auto;html=1;entryX=0;entryY=0.5;entryDx=0;entryDy=0;" parent="LajamOLVWnlA8zwAaqZa-44" source="LajamOLVWnlA8zwAaqZa-46" target="3j8w4SsJkNTH-5cHEGqh-1" edge="1">
          <mxGeometry relative="1" as="geometry">
            <Array as="points">
              <mxPoint x="1080" y="885" />
              <mxPoint x="1080" y="1280" />
            </Array>
          </mxGeometry>
        </mxCell>
        <mxCell id="3j8w4SsJkNTH-5cHEGqh-5" value="Run an Argo Workflow" style="edgeLabel;html=1;align=center;verticalAlign=middle;resizable=0;points=[];" parent="3j8w4SsJkNTH-5cHEGqh-3" vertex="1" connectable="0">
          <mxGeometry x="0.6939" y="-4" relative="1" as="geometry">
            <mxPoint as="offset" />
          </mxGeometry>
        </mxCell>
        <mxCell id="bEKMuU_0UAxug-UBrcEZ-9" style="edgeStyle=orthogonalEdgeStyle;rounded=0;orthogonalLoop=1;jettySize=auto;html=1;entryX=0;entryY=0.5;entryDx=0;entryDy=0;entryPerimeter=0;" parent="LajamOLVWnlA8zwAaqZa-44" source="LajamOLVWnlA8zwAaqZa-46" target="bEKMuU_0UAxug-UBrcEZ-8" edge="1">
          <mxGeometry relative="1" as="geometry">
            <mxPoint x="959" y="1250" as="targetPoint" />
            <Array as="points">
              <mxPoint x="1080" y="885" />
              <mxPoint x="1080" y="1446" />
            </Array>
          </mxGeometry>
        </mxCell>
        <mxCell id="bEKMuU_0UAxug-UBrcEZ-10" value="lambda to extend functionality" style="edgeLabel;html=1;align=center;verticalAlign=middle;resizable=0;points=[];" parent="bEKMuU_0UAxug-UBrcEZ-9" vertex="1" connectable="0">
          <mxGeometry x="0.7599" y="2" relative="1" as="geometry">
            <mxPoint as="offset" />
          </mxGeometry>
        </mxCell>
        <mxCell id="bEKMuU_0UAxug-UBrcEZ-12" style="edgeStyle=orthogonalEdgeStyle;rounded=0;orthogonalLoop=1;jettySize=auto;html=1;entryX=0;entryY=0.5;entryDx=0;entryDy=0;" parent="LajamOLVWnlA8zwAaqZa-44" source="LajamOLVWnlA8zwAaqZa-46" target="bEKMuU_0UAxug-UBrcEZ-11" edge="1">
          <mxGeometry relative="1" as="geometry">
            <Array as="points">
              <mxPoint x="1080" y="885" />
              <mxPoint x="1080" y="310" />
            </Array>
          </mxGeometry>
        </mxCell>
        <mxCell id="bEKMuU_0UAxug-UBrcEZ-14" value="AWS API" style="edgeLabel;html=1;align=center;verticalAlign=middle;resizable=0;points=[];" parent="bEKMuU_0UAxug-UBrcEZ-12" vertex="1" connectable="0">
          <mxGeometry x="0.7772" y="2" relative="1" as="geometry">
            <mxPoint as="offset" />
          </mxGeometry>
        </mxCell>
        <mxCell id="LajamOLVWnlA8zwAaqZa-46" value="Self Service Action Step Function" style="sketch=0;points=[[0,0,0],[0.25,0,0],[0.5,0,0],[0.75,0,0],[1,0,0],[0,1,0],[0.25,1,0],[0.5,1,0],[0.75,1,0],[1,1,0],[0,0.25,0],[0,0.5,0],[0,0.75,0],[1,0.25,0],[1,0.5,0],[1,0.75,0]];outlineConnect=0;fontColor=#232F3E;fillColor=#E7157B;strokeColor=#ffffff;dashed=0;verticalLabelPosition=bottom;verticalAlign=top;align=center;html=1;fontSize=12;fontStyle=0;aspect=fixed;shape=mxgraph.aws4.resourceIcon;resIcon=mxgraph.aws4.step_functions;" parent="LajamOLVWnlA8zwAaqZa-44" vertex="1">
          <mxGeometry x="920" y="846" width="78" height="78" as="geometry" />
        </mxCell>
        <mxCell id="LajamOLVWnlA8zwAaqZa-47" style="edgeStyle=orthogonalEdgeStyle;rounded=0;orthogonalLoop=1;jettySize=auto;html=1;entryX=0;entryY=0.5;entryDx=0;entryDy=0;entryPerimeter=0;" parent="LajamOLVWnlA8zwAaqZa-44" target="LajamOLVWnlA8zwAaqZa-46" edge="1">
          <mxGeometry relative="1" as="geometry">
            <mxPoint x="700" y="885" as="sourcePoint" />
          </mxGeometry>
        </mxCell>
        <mxCell id="LajamOLVWnlA8zwAaqZa-77" value="Secrets Manager" style="sketch=0;points=[[0,0,0],[0.25,0,0],[0.5,0,0],[0.75,0,0],[1,0,0],[0,1,0],[0.25,1,0],[0.5,1,0],[0.75,1,0],[1,1,0],[0,0.25,0],[0,0.5,0],[0,0.75,0],[1,0.25,0],[1,0.5,0],[1,0.75,0]];outlineConnect=0;fontColor=#232F3E;fillColor=#DD344C;strokeColor=#ffffff;dashed=0;verticalLabelPosition=bottom;verticalAlign=top;align=center;html=1;fontSize=12;fontStyle=0;aspect=fixed;shape=mxgraph.aws4.resourceIcon;resIcon=mxgraph.aws4.secrets_manager;" parent="LajamOLVWnlA8zwAaqZa-44" vertex="1">
          <mxGeometry x="1260" y="650" width="78" height="78" as="geometry" />
        </mxCell>
        <mxCell id="LajamOLVWnlA8zwAaqZa-78" value="Prod Account" style="points=[[0,0],[0.25,0],[0.5,0],[0.75,0],[1,0],[1,0.25],[1,0.5],[1,0.75],[1,1],[0.75,1],[0.5,1],[0.25,1],[0,1],[0,0.75],[0,0.5],[0,0.25]];outlineConnect=0;gradientColor=none;html=1;whiteSpace=wrap;fontSize=12;fontStyle=0;container=1;pointerEvents=0;collapsible=0;recursiveResize=0;shape=mxgraph.aws4.group;grIcon=mxgraph.aws4.group_account;strokeColor=#CD2264;fillColor=none;verticalAlign=top;align=left;spacingLeft=30;fontColor=#CD2264;dashed=0;" parent="LajamOLVWnlA8zwAaqZa-44" vertex="1">
          <mxGeometry x="1234" y="620" width="130" height="130" as="geometry" />
        </mxCell>
        <mxCell id="X8_zKJHgDB3dqM_pHuZj-1" value="gitlab project" style="shape=image;html=1;verticalAlign=top;verticalLabelPosition=bottom;labelBackgroundColor=#ffffff;imageAspect=0;aspect=fixed;image=https://cdn4.iconfinder.com/data/icons/socialcones/508/Gitlab-128.png" parent="LajamOLVWnlA8zwAaqZa-44" vertex="1">
          <mxGeometry x="1250" y="840" width="90" height="90" as="geometry" />
        </mxCell>
        <mxCell id="X8_zKJHgDB3dqM_pHuZj-9" value="VPC Security group" style="sketch=0;points=[[0,0,0],[0.25,0,0],[0.5,0,0],[0.75,0,0],[1,0,0],[0,1,0],[0.25,1,0],[0.5,1,0],[0.75,1,0],[1,1,0],[0,0.25,0],[0,0.5,0],[0,0.75,0],[1,0.25,0],[1,0.5,0],[1,0.75,0]];outlineConnect=0;fontColor=#232F3E;fillColor=#8C4FFF;strokeColor=#ffffff;dashed=0;verticalLabelPosition=bottom;verticalAlign=top;align=center;html=1;fontSize=12;fontStyle=0;aspect=fixed;shape=mxgraph.aws4.resourceIcon;resIcon=mxgraph.aws4.vpc;" parent="LajamOLVWnlA8zwAaqZa-44" vertex="1">
          <mxGeometry x="1260" y="1060" width="78" height="78" as="geometry" />
        </mxCell>
        <mxCell id="X8_zKJHgDB3dqM_pHuZj-10" value="QA Account" style="points=[[0,0],[0.25,0],[0.5,0],[0.75,0],[1,0],[1,0.25],[1,0.5],[1,0.75],[1,1],[0.75,1],[0.5,1],[0.25,1],[0,1],[0,0.75],[0,0.5],[0,0.25]];outlineConnect=0;gradientColor=none;html=1;whiteSpace=wrap;fontSize=12;fontStyle=0;container=1;pointerEvents=0;collapsible=0;recursiveResize=0;shape=mxgraph.aws4.group;grIcon=mxgraph.aws4.group_account;strokeColor=#CD2264;fillColor=none;verticalAlign=top;align=left;spacingLeft=30;fontColor=#CD2264;dashed=0;" parent="LajamOLVWnlA8zwAaqZa-44" vertex="1">
          <mxGeometry x="1234" y="1034" width="130" height="130" as="geometry" />
        </mxCell>
        <mxCell id="3j8w4SsJkNTH-5cHEGqh-1" value="Argo Workflows" style="shape=image;imageAspect=0;aspect=fixed;verticalLabelPosition=bottom;verticalAlign=top;image=https://www.opsmx.com/wp-content/uploads/2022/07/Argo-1-e1630327305635-1.png;" parent="LajamOLVWnlA8zwAaqZa-44" vertex="1">
          <mxGeometry x="1238.71" y="1240" width="120.58" height="80" as="geometry" />
        </mxCell>
        <mxCell id="3j8w4SsJkNTH-5cHEGqh-6" value="Self Service Actions" style="swimlane;fontColor=#000000;" parent="LajamOLVWnlA8zwAaqZa-44" vertex="1">
          <mxGeometry x="140" y="800" width="560" height="170" as="geometry" />
        </mxCell>
        <mxCell id="bEKMuU_0UAxug-UBrcEZ-8" value="" style="outlineConnect=0;dashed=0;verticalLabelPosition=bottom;verticalAlign=top;align=center;html=1;shape=mxgraph.aws3.lambda_function;fillColor=#F58534;gradientColor=none;" parent="LajamOLVWnlA8zwAaqZa-44" vertex="1">
          <mxGeometry x="1270" y="1410" width="69" height="72" as="geometry" />
        </mxCell>
        <mxCell id="bEKMuU_0UAxug-UBrcEZ-11" value="" style="shape=image;imageAspect=0;aspect=fixed;verticalLabelPosition=bottom;verticalAlign=top;image=https://cdn.iconscout.com/icon/free/png-256/free-aws-logo-icon-download-in-svg-png-gif-file-formats--cloud-computing-network-server-database-brand-pack-logos-icons-1583149.png?f=webp&amp;w=256;" parent="LajamOLVWnlA8zwAaqZa-44" vertex="1">
          <mxGeometry x="1249" y="260" width="100" height="100" as="geometry" />
        </mxCell>
        <mxCell id="Fe8dexCIpTHIfGe5T8by-1" value="Execute Terraform" style="shape=image;imageAspect=0;aspect=fixed;verticalLabelPosition=bottom;verticalAlign=top;image=https://azapi-vscode.gallerycdn.vsassets.io/extensions/azapi-vscode/azapi/2.3.0/1741328541367/Microsoft.VisualStudio.Services.Icons.Default;" parent="LajamOLVWnlA8zwAaqZa-44" vertex="1">
          <mxGeometry x="1250" y="460" width="80" height="80" as="geometry" />
        </mxCell>
        <mxCell id="Fe8dexCIpTHIfGe5T8by-2" value="" style="sketch=0;points=[[0,0,0],[0.25,0,0],[0.5,0,0],[0.75,0,0],[1,0,0],[0,1,0],[0.25,1,0],[0.5,1,0],[0.75,1,0],[1,1,0],[0,0.25,0],[0,0.5,0],[0,0.75,0],[1,0.25,0],[1,0.5,0],[1,0.75,0]];outlineConnect=0;fontColor=#232F3E;fillColor=#8C4FFF;strokeColor=#ffffff;dashed=0;verticalLabelPosition=bottom;verticalAlign=top;align=center;html=1;fontSize=12;fontStyle=0;aspect=fixed;shape=mxgraph.aws4.resourceIcon;resIcon=mxgraph.aws4.emr;" parent="LajamOLVWnlA8zwAaqZa-44" vertex="1">
          <mxGeometry x="1270" y="1572" width="78" height="78" as="geometry" />
        </mxCell>
        <mxCell id="Fe8dexCIpTHIfGe5T8by-4" style="edgeStyle=orthogonalEdgeStyle;rounded=0;orthogonalLoop=1;jettySize=auto;html=1;entryX=0;entryY=0.5;entryDx=0;entryDy=0;entryPerimeter=0;" parent="LajamOLVWnlA8zwAaqZa-44" source="LajamOLVWnlA8zwAaqZa-46" target="Fe8dexCIpTHIfGe5T8by-2" edge="1">
          <mxGeometry relative="1" as="geometry">
            <Array as="points">
              <mxPoint x="1080" y="885" />
              <mxPoint x="1080" y="1611" />
            </Array>
          </mxGeometry>
        </mxCell>
        <mxCell id="Fe8dexCIpTHIfGe5T8by-5" value="Start / stop EMR jobs" style="edgeLabel;html=1;align=center;verticalAlign=middle;resizable=0;points=[];" parent="Fe8dexCIpTHIfGe5T8by-4" vertex="1" connectable="0">
          <mxGeometry x="0.8056" y="-1" relative="1" as="geometry">
            <mxPoint as="offset" />
          </mxGeometry>
        </mxCell>
        <object label="Security" id="pAiZT0ztTUFN5CNCpKfk-2">
          <mxCell parent="0" visible="0" />
        </object>
        <mxCell id="3j8w4SsJkNTH-5cHEGqh-8" value="Internal Controlplane Account (Admins Only)" style="sketch=0;outlineConnect=0;fontColor=#232F3E;gradientColor=none;strokeColor=#232F3E;fillColor=#ffffff;dashed=0;verticalLabelPosition=bottom;verticalAlign=top;align=center;html=1;fontSize=12;fontStyle=0;aspect=fixed;shape=mxgraph.aws4.resourceIcon;resIcon=mxgraph.aws4.checklist_security;" parent="pAiZT0ztTUFN5CNCpKfk-2" vertex="1">
          <mxGeometry x="80" y="230" width="60" height="60" as="geometry" />
        </mxCell>
        <mxCell id="3j8w4SsJkNTH-5cHEGqh-11" value="SASL/SCRAM Authentication" style="sketch=0;outlineConnect=0;fontColor=#232F3E;gradientColor=none;fillColor=#DD344C;strokeColor=none;dashed=0;verticalLabelPosition=bottom;verticalAlign=top;align=center;html=1;fontSize=12;fontStyle=0;aspect=fixed;pointerEvents=1;shape=mxgraph.aws4.permissions;" parent="pAiZT0ztTUFN5CNCpKfk-2" vertex="1">
          <mxGeometry x="490" y="240" width="39.74" height="50" as="geometry" />
        </mxCell>
        <mxCell id="3j8w4SsJkNTH-5cHEGqh-15" value="HTTPS / Bearer Token" style="sketch=0;outlineConnect=0;fontColor=#232F3E;gradientColor=none;fillColor=#DD344C;strokeColor=none;dashed=0;verticalLabelPosition=bottom;verticalAlign=top;align=center;html=1;fontSize=12;fontStyle=0;aspect=fixed;pointerEvents=1;shape=mxgraph.aws4.permissions;" parent="pAiZT0ztTUFN5CNCpKfk-2" vertex="1">
          <mxGeometry x="500" y="1500" width="39.74" height="50" as="geometry" />
        </mxCell>
        <mxCell id="3j8w4SsJkNTH-5cHEGqh-17" value="SecretsManager Port creds" style="sketch=0;points=[[0,0,0],[0.25,0,0],[0.5,0,0],[0.75,0,0],[1,0,0],[0,1,0],[0.25,1,0],[0.5,1,0],[0.75,1,0],[1,1,0],[0,0.25,0],[0,0.5,0],[0,0.75,0],[1,0.25,0],[1,0.5,0],[1,0.75,0]];outlineConnect=0;fontColor=#232F3E;fillColor=#DD344C;strokeColor=#ffffff;dashed=0;verticalLabelPosition=bottom;verticalAlign=top;align=center;html=1;fontSize=12;fontStyle=0;aspect=fixed;shape=mxgraph.aws4.resourceIcon;resIcon=mxgraph.aws4.secrets_manager;" parent="pAiZT0ztTUFN5CNCpKfk-2" vertex="1">
          <mxGeometry x="540" y="1360" width="48" height="48" as="geometry" />
        </mxCell>
        <mxCell id="3j8w4SsJkNTH-5cHEGqh-9" value="Integration passwords in secrets manager" style="sketch=0;points=[[0,0,0],[0.25,0,0],[0.5,0,0],[0.75,0,0],[1,0,0],[0,1,0],[0.25,1,0],[0.5,1,0],[0.75,1,0],[1,1,0],[0,0.25,0],[0,0.5,0],[0,0.75,0],[1,0.25,0],[1,0.5,0],[1,0.75,0]];outlineConnect=0;fontColor=#232F3E;fillColor=#DD344C;strokeColor=#ffffff;dashed=0;verticalLabelPosition=bottom;verticalAlign=top;align=center;html=1;fontSize=12;fontStyle=0;aspect=fixed;shape=mxgraph.aws4.resourceIcon;resIcon=mxgraph.aws4.secrets_manager;" parent="pAiZT0ztTUFN5CNCpKfk-2" vertex="1">
          <mxGeometry x="725.87" y="1000" width="48" height="48" as="geometry" />
        </mxCell>
        <mxCell id="3j8w4SsJkNTH-5cHEGqh-16" value="Stepfn encrypted with default AWS KMS key" style="sketch=0;outlineConnect=0;fontColor=#232F3E;gradientColor=none;fillColor=#DD344C;strokeColor=none;dashed=0;verticalLabelPosition=bottom;verticalAlign=top;align=center;html=1;fontSize=12;fontStyle=0;aspect=fixed;pointerEvents=1;shape=mxgraph.aws4.permissions;" parent="pAiZT0ztTUFN5CNCpKfk-2" vertex="1">
          <mxGeometry x="730" y="910" width="39.74" height="50" as="geometry" />
        </mxCell>
        <mxCell id="3j8w4SsJkNTH-5cHEGqh-12" value="IAM Role Restricted access&lt;br&gt;Cross region permissions" style="sketch=0;outlineConnect=0;fontColor=#232F3E;gradientColor=none;fillColor=#DD344C;strokeColor=none;dashed=0;verticalLabelPosition=bottom;verticalAlign=top;align=center;html=1;fontSize=12;fontStyle=0;aspect=fixed;pointerEvents=1;shape=mxgraph.aws4.permissions;" parent="pAiZT0ztTUFN5CNCpKfk-2" vertex="1">
          <mxGeometry x="730" y="808" width="39.74" height="50" as="geometry" />
        </mxCell>
        <mxCell id="3j8w4SsJkNTH-5cHEGqh-19" value="Internal Event Bus" style="sketch=0;outlineConnect=0;fontColor=#232F3E;gradientColor=none;fillColor=#DD344C;strokeColor=none;dashed=0;verticalLabelPosition=bottom;verticalAlign=top;align=center;html=1;fontSize=12;fontStyle=0;aspect=fixed;pointerEvents=1;shape=mxgraph.aws4.permissions;" parent="pAiZT0ztTUFN5CNCpKfk-2" vertex="1">
          <mxGeometry x="290" y="500" width="39.74" height="50" as="geometry" />
        </mxCell>
        <mxCell id="bEKMuU_0UAxug-UBrcEZ-27" value="SecretsManager Kafka creds" style="sketch=0;points=[[0,0,0],[0.25,0,0],[0.5,0,0],[0.75,0,0],[1,0,0],[0,1,0],[0.25,1,0],[0.5,1,0],[0.75,1,0],[1,1,0],[0,0.25,0],[0,0.5,0],[0,0.75,0],[1,0.25,0],[1,0.5,0],[1,0.75,0]];outlineConnect=0;fontColor=#232F3E;fillColor=#DD344C;strokeColor=#ffffff;dashed=0;verticalLabelPosition=bottom;verticalAlign=top;align=center;html=1;fontSize=12;fontStyle=0;aspect=fixed;shape=mxgraph.aws4.resourceIcon;resIcon=mxgraph.aws4.secrets_manager;" parent="pAiZT0ztTUFN5CNCpKfk-2" vertex="1">
          <mxGeometry x="290" y="410" width="48" height="48" as="geometry" />
        </mxCell>
        <mxCell id="3j8w4SsJkNTH-5cHEGqh-7" value="Observability" parent="0" visible="0" />
        <mxCell id="3j8w4SsJkNTH-5cHEGqh-21" value="CW Logs and metrics" style="sketch=0;points=[[0,0,0],[0.25,0,0],[0.5,0,0],[0.75,0,0],[1,0,0],[0,1,0],[0.25,1,0],[0.5,1,0],[0.75,1,0],[1,1,0],[0,0.25,0],[0,0.5,0],[0,0.75,0],[1,0.25,0],[1,0.5,0],[1,0.75,0]];points=[[0,0,0],[0.25,0,0],[0.5,0,0],[0.75,0,0],[1,0,0],[0,1,0],[0.25,1,0],[0.5,1,0],[0.75,1,0],[1,1,0],[0,0.25,0],[0,0.5,0],[0,0.75,0],[1,0.25,0],[1,0.5,0],[1,0.75,0]];outlineConnect=0;fontColor=#232F3E;fillColor=#E7157B;strokeColor=#ffffff;dashed=0;verticalLabelPosition=bottom;verticalAlign=top;align=center;html=1;fontSize=12;fontStyle=0;aspect=fixed;shape=mxgraph.aws4.resourceIcon;resIcon=mxgraph.aws4.cloudwatch_2;" parent="3j8w4SsJkNTH-5cHEGqh-7" vertex="1">
          <mxGeometry x="320" y="350" width="50" height="50" as="geometry" />
        </mxCell>
        <mxCell id="3j8w4SsJkNTH-5cHEGqh-22" value="CW Logs and metrics" style="sketch=0;points=[[0,0,0],[0.25,0,0],[0.5,0,0],[0.75,0,0],[1,0,0],[0,1,0],[0.25,1,0],[0.5,1,0],[0.75,1,0],[1,1,0],[0,0.25,0],[0,0.5,0],[0,0.75,0],[1,0.25,0],[1,0.5,0],[1,0.75,0]];points=[[0,0,0],[0.25,0,0],[0.5,0,0],[0.75,0,0],[1,0,0],[0,1,0],[0.25,1,0],[0.5,1,0],[0.75,1,0],[1,1,0],[0,0.25,0],[0,0.5,0],[0,0.75,0],[1,0.25,0],[1,0.5,0],[1,0.75,0]];outlineConnect=0;fontColor=#232F3E;fillColor=#E7157B;strokeColor=#ffffff;dashed=0;verticalLabelPosition=bottom;verticalAlign=top;align=center;html=1;fontSize=12;fontStyle=0;aspect=fixed;shape=mxgraph.aws4.resourceIcon;resIcon=mxgraph.aws4.cloudwatch_2;" parent="3j8w4SsJkNTH-5cHEGqh-7" vertex="1">
          <mxGeometry x="700" y="450" width="50" height="50" as="geometry" />
        </mxCell>
        <mxCell id="3j8w4SsJkNTH-5cHEGqh-24" value="AWS&#xa;CloudTrail" style="sketch=0;outlineConnect=0;fontColor=#232F3E;gradientColor=none;strokeColor=#ffffff;fillColor=#232F3E;dashed=0;verticalLabelPosition=middle;verticalAlign=bottom;align=center;html=1;whiteSpace=wrap;fontSize=10;fontStyle=1;spacing=3;shape=mxgraph.aws4.productIcon;prIcon=mxgraph.aws4.cloudtrail;" parent="3j8w4SsJkNTH-5cHEGqh-7" vertex="1">
          <mxGeometry x="320" y="260" width="50" height="80" as="geometry" />
        </mxCell>
        <mxCell id="bEKMuU_0UAxug-UBrcEZ-2" value="New Relic Monitoring Integration (potential)" style="shape=image;imageAspect=0;aspect=fixed;verticalLabelPosition=bottom;verticalAlign=top;image=https://cdn-1.webcatalog.io/catalog/new-relic/new-relic-icon-filled-256.png?v=1714775252252;" parent="3j8w4SsJkNTH-5cHEGqh-7" vertex="1">
          <mxGeometry x="990" y="720" width="130" height="130" as="geometry" />
        </mxCell>
        <mxCell id="bEKMuU_0UAxug-UBrcEZ-3" value="Simple Notication Service SNS (potential)" style="sketch=0;points=[[0,0,0],[0.25,0,0],[0.5,0,0],[0.75,0,0],[1,0,0],[0,1,0],[0.25,1,0],[0.5,1,0],[0.75,1,0],[1,1,0],[0,0.25,0],[0,0.5,0],[0,0.75,0],[1,0.25,0],[1,0.5,0],[1,0.75,0]];outlineConnect=0;fontColor=#232F3E;fillColor=#E7157B;strokeColor=#ffffff;dashed=0;verticalLabelPosition=bottom;verticalAlign=top;align=center;html=1;fontSize=12;fontStyle=0;aspect=fixed;shape=mxgraph.aws4.resourceIcon;resIcon=mxgraph.aws4.sns;" parent="3j8w4SsJkNTH-5cHEGqh-7" vertex="1">
          <mxGeometry x="996" y="1000" width="78" height="78" as="geometry" />
        </mxCell>
        <mxCell id="bEKMuU_0UAxug-UBrcEZ-4" style="edgeStyle=orthogonalEdgeStyle;rounded=0;orthogonalLoop=1;jettySize=auto;html=1;entryX=0;entryY=0.5;entryDx=0;entryDy=0;" parent="3j8w4SsJkNTH-5cHEGqh-7" target="bEKMuU_0UAxug-UBrcEZ-2" edge="1">
          <mxGeometry relative="1" as="geometry">
            <mxPoint x="753" y="885" as="sourcePoint" />
            <mxPoint x="980" y="800" as="targetPoint" />
            <Array as="points">
              <mxPoint x="880" y="885" />
              <mxPoint x="880" y="790" />
              <mxPoint x="990" y="790" />
            </Array>
          </mxGeometry>
        </mxCell>
        <mxCell id="bEKMuU_0UAxug-UBrcEZ-5" style="edgeStyle=orthogonalEdgeStyle;rounded=0;orthogonalLoop=1;jettySize=auto;html=1;entryX=0;entryY=0.5;entryDx=0;entryDy=0;entryPerimeter=0;" parent="3j8w4SsJkNTH-5cHEGqh-7" source="LajamOLVWnlA8zwAaqZa-10" target="bEKMuU_0UAxug-UBrcEZ-3" edge="1">
          <mxGeometry relative="1" as="geometry" />
        </mxCell>
        <mxCell id="bEKMuU_0UAxug-UBrcEZ-15" value="AWS&#xa;CloudTrail" style="sketch=0;outlineConnect=0;fontColor=#232F3E;gradientColor=none;strokeColor=#ffffff;fillColor=#232F3E;dashed=0;verticalLabelPosition=middle;verticalAlign=bottom;align=center;html=1;whiteSpace=wrap;fontSize=10;fontStyle=1;spacing=3;shape=mxgraph.aws4.productIcon;prIcon=mxgraph.aws4.cloudtrail;" parent="3j8w4SsJkNTH-5cHEGqh-7" vertex="1">
          <mxGeometry x="700" y="360" width="50" height="80" as="geometry" />
        </mxCell>
        <mxCell id="bEKMuU_0UAxug-UBrcEZ-16" value="CW Logs and metrics" style="sketch=0;points=[[0,0,0],[0.25,0,0],[0.5,0,0],[0.75,0,0],[1,0,0],[0,1,0],[0.25,1,0],[0.5,1,0],[0.75,1,0],[1,1,0],[0,0.25,0],[0,0.5,0],[0,0.75,0],[1,0.25,0],[1,0.5,0],[1,0.75,0]];points=[[0,0,0],[0.25,0,0],[0.5,0,0],[0.75,0,0],[1,0,0],[0,1,0],[0.25,1,0],[0.5,1,0],[0.75,1,0],[1,1,0],[0,0.25,0],[0,0.5,0],[0,0.75,0],[1,0.25,0],[1,0.5,0],[1,0.75,0]];outlineConnect=0;fontColor=#232F3E;fillColor=#E7157B;strokeColor=#ffffff;dashed=0;verticalLabelPosition=bottom;verticalAlign=top;align=center;html=1;fontSize=12;fontStyle=0;aspect=fixed;shape=mxgraph.aws4.resourceIcon;resIcon=mxgraph.aws4.cloudwatch_2;" parent="3j8w4SsJkNTH-5cHEGqh-7" vertex="1">
          <mxGeometry x="690" y="930" width="50" height="50" as="geometry" />
        </mxCell>
        <mxCell id="bEKMuU_0UAxug-UBrcEZ-17" value="AWS&#xa;CloudTrail" style="sketch=0;outlineConnect=0;fontColor=#232F3E;gradientColor=none;strokeColor=#ffffff;fillColor=#232F3E;dashed=0;verticalLabelPosition=middle;verticalAlign=bottom;align=center;html=1;whiteSpace=wrap;fontSize=10;fontStyle=1;spacing=3;shape=mxgraph.aws4.productIcon;prIcon=mxgraph.aws4.cloudtrail;" parent="3j8w4SsJkNTH-5cHEGqh-7" vertex="1">
          <mxGeometry x="690" y="840" width="50" height="80" as="geometry" />
        </mxCell>
        <mxCell id="bEKMuU_0UAxug-UBrcEZ-18" value="Stepfn Retry / Redrive" style="html=1;verticalLabelPosition=bottom;align=center;labelBackgroundColor=#ffffff;verticalAlign=top;strokeWidth=2;strokeColor=#0080F0;shadow=0;dashed=0;shape=mxgraph.ios7.icons.reload;" parent="3j8w4SsJkNTH-5cHEGqh-7" vertex="1">
          <mxGeometry x="700" y="780" width="24" height="27" as="geometry" />
        </mxCell>
        <mxCell id="bEKMuU_0UAxug-UBrcEZ-25" value="Step function UI" style="sketch=0;points=[[0,0,0],[0.25,0,0],[0.5,0,0],[0.75,0,0],[1,0,0],[0,1,0],[0.25,1,0],[0.5,1,0],[0.75,1,0],[1,1,0],[0,0.25,0],[0,0.5,0],[0,0.75,0],[1,0.25,0],[1,0.5,0],[1,0.75,0]];outlineConnect=0;fontColor=#232F3E;fillColor=#E7157B;strokeColor=#ffffff;dashed=0;verticalLabelPosition=bottom;verticalAlign=top;align=center;html=1;fontSize=12;fontStyle=0;aspect=fixed;shape=mxgraph.aws4.resourceIcon;resIcon=mxgraph.aws4.eventbridge;" parent="3j8w4SsJkNTH-5cHEGqh-7" vertex="1">
          <mxGeometry x="690" y="1010" width="48" height="48" as="geometry" />
        </mxCell>
        <mxCell id="bEKMuU_0UAxug-UBrcEZ-28" value="step function errors can be reported back to port" style="sketch=0;points=[[0,0,0],[0.25,0,0],[0.5,0,0],[0.75,0,0],[1,0,0],[0,1,0],[0.25,1,0],[0.5,1,0],[0.75,1,0],[1,1,0],[0,0.25,0],[0,0.5,0],[0,0.75,0],[1,0.25,0],[1,0.5,0],[1,0.75,0]];outlineConnect=0;fontColor=#232F3E;fillColor=#E7157B;strokeColor=#ffffff;dashed=0;verticalLabelPosition=bottom;verticalAlign=top;align=center;html=1;fontSize=12;fontStyle=0;aspect=fixed;shape=mxgraph.aws4.resourceIcon;resIcon=mxgraph.aws4.eventbridge;" parent="3j8w4SsJkNTH-5cHEGqh-7" vertex="1">
          <mxGeometry x="510" y="1500" width="48" height="48" as="geometry" />
        </mxCell>
        <mxCell id="bEKMuU_0UAxug-UBrcEZ-19" value="Cost" parent="0" visible="0" />
        <mxCell id="bEKMuU_0UAxug-UBrcEZ-21" value="$0.40/million requests entering a Pipe" style="shape=image;html=1;verticalAlign=top;verticalLabelPosition=bottom;labelBackgroundColor=#ffffff;imageAspect=0;aspect=fixed;image=https://cdn0.iconfinder.com/data/icons/business-startup-10/50/53-128.png" parent="bEKMuU_0UAxug-UBrcEZ-19" vertex="1">
          <mxGeometry x="850" y="360" width="50" height="50" as="geometry" />
        </mxCell>
        <mxCell id="bEKMuU_0UAxug-UBrcEZ-23" value="$0.025 Price per 1,000 state transitions" style="shape=image;html=1;verticalAlign=top;verticalLabelPosition=bottom;labelBackgroundColor=#ffffff;imageAspect=0;aspect=fixed;image=https://cdn0.iconfinder.com/data/icons/business-startup-10/50/53-128.png" parent="bEKMuU_0UAxug-UBrcEZ-19" vertex="1">
          <mxGeometry x="770" y="840" width="50" height="50" as="geometry" />
        </mxCell>
        <mxCell id="bEKMuU_0UAxug-UBrcEZ-26" value="$1.00/million events&lt;br&gt;Free delivery in same account" style="shape=image;html=1;verticalAlign=top;verticalLabelPosition=bottom;labelBackgroundColor=#ffffff;imageAspect=0;aspect=fixed;image=https://cdn0.iconfinder.com/data/icons/business-startup-10/50/53-128.png" parent="bEKMuU_0UAxug-UBrcEZ-19" vertex="1">
          <mxGeometry x="510" y="500" width="50" height="50" as="geometry" />
        </mxCell>
      </root>
    </mxGraphModel>
  </diagram>
</mxfile>
